<?xml version="1.0" standalone="no"?>
<!DOCTYPE svg PUBLIC "-//W3C//DTD SVG 1.1//EN" "http://www.w3.org/Graphics/SVG/1.1/DTD/svg11.dtd" >
<svg xmlns="http://www.w3.org/2000/svg">
<metadata></metadata>
<defs>
<font id="placard_mtcondensed" horiz-adv-x="724" >
<font-face units-per-em="2048" ascent="1638" descent="-410" />
<missing-glyph horiz-adv-x="362" />
<glyph unicode="&#xfb01;" d="M12 1141v190h58v39q0 111 23.5 174.5t62.5 96t86 42t94 11.5v-199q-31 -4 -56.5 -25.5t-25.5 -80.5v-58h115v-190h-82v-1141h-217v1141h-58zM422 1532q0 49 36 84t85 35t84 -35t35 -84q0 -53 -36 -87t-81 -34q-55 0 -89 37t-34 84zM434 0v1331h217v-1331h-217z" />
<glyph unicode="&#xfb02;" d="M43 1141v190h45v39q0 113 29.5 177.5t72.5 96t92.5 40t90.5 10.5v-201q-47 -6 -73 -31.5t-26 -72.5v-58h123v-190h-92v-1141h-217v1141h-45zM457 0v1681h217v-1681h-217z" />
<glyph horiz-adv-x="2048" />
<glyph horiz-adv-x="2048" />
<glyph unicode="&#xd;" horiz-adv-x="362" />
<glyph unicode=" "  horiz-adv-x="362" />
<glyph unicode="&#x09;" horiz-adv-x="362" />
<glyph unicode="&#xa0;" horiz-adv-x="362" />
<glyph unicode="!" horiz-adv-x="405" d="M72 125q0 59 40 95t87 36q61 0 98 -40t37 -91q0 -53 -39 -92t-92 -39q-55 0 -93 39t-38 92zM78 1481q0 31 4 68.5t16.5 70.5t37 55.5t65.5 22.5q45 0 69.5 -24.5t36.5 -60.5t14.5 -77t2.5 -72q0 -113 -6.5 -217t-17.5 -221t-29.5 -255t-43.5 -318h-51q-25 182 -43 321 t-30.5 256t-18.5 223.5t-6 227.5z" />
<glyph unicode="&#x22;" horiz-adv-x="727" d="M139 1440v241h176v-241l-41 -279h-94zM412 1440v241h176v-241l-41 -279h-94z" />
<glyph unicode="#" horiz-adv-x="1368" d="M90 526v144h232l73 352h-305v143h336l82 391h141l-82 -391h371l82 391h141l-82 -391h201v-143h-229l-76 -352h305v-144h-334l-82 -391h-141l82 391h-373l-82 -391h-141l82 391h-201zM463 670h371l75 352h-372z" />
<glyph unicode="$" d="M51 1251q0 119 34 188.5t80 106.5t92 48.5t69 15.5v86h75v-86q51 -6 100.5 -25.5t88.5 -58.5t61.5 -99.5t22.5 -152.5v-78h-185v49q0 47 -7 77t-18 48.5t-27.5 28.5t-35.5 16v-450q55 -63 104.5 -127t86.5 -135.5t59.5 -155.5t22.5 -187q0 -53 -10.5 -109t-40 -105.5 t-83 -88.5t-139.5 -57v-137h-75v137q-57 14 -106.5 34.5t-85.5 60.5t-56.5 102.5t-20.5 158.5v72h185v-47q0 -49 7 -81t18.5 -50.5t26.5 -28.5t32 -16v497q-78 100 -130.5 171t-84 130.5t-46 117t-14.5 130.5zM236 1282q0 -68 30.5 -124t55.5 -97h4v356q-14 -6 -29.5 -13 t-29 -22.5t-22.5 -39t-9 -60.5zM401 207q35 16 61.5 49t26.5 104q0 45 -9 82t-22.5 68t-27.5 54.5t-24 41.5h-5v-399z" />
<glyph unicode="%" horiz-adv-x="1044" d="M59 -184l772 1865h154l-770 -1865h-156zM72 1176v274q0 39 7 83t27.5 81t58.5 60.5t99 23.5q55 0 94 -20.5t61.5 -54.5t33 -79t10.5 -94v-315q0 -35 -9.5 -74t-31 -72t-59 -54.5t-93.5 -21.5q-59 0 -97 21.5t-60.5 57.5t-31.5 83t-9 101zM207 1171q0 -51 10 -91t51 -40 t50.5 37t9.5 78v262q0 31 -1 58.5t-7.5 49t-18.5 34t-35 12.5t-35 -14.5t-17 -36t-6 -46t-1 -42.5v-261zM582 78v274q0 39 7 83t27.5 81t58.5 60.5t99 23.5q55 0 94 -20.5t61.5 -54t33 -79t10.5 -94.5v-315q0 -35 -9.5 -74t-31 -71.5t-59 -54t-93.5 -21.5q-59 0 -97 21.5 t-60.5 57t-31.5 83t-9 100.5zM717 74q0 -51 10 -91t51 -40t50.5 36.5t9.5 77.5v262q0 31 -1 59t-7.5 49.5t-18.5 33.5t-35 12t-35 -14.5t-17 -36t-6 -46t-1 -42.5v-260z" />
<glyph unicode="&#x26;" horiz-adv-x="874" d="M39 455q0 106 13.5 181t40 132t63.5 106.5t86 106.5q-2 8 -8.5 30.5t-14.5 47t-15 47t-9 31.5q-23 74 -31 127t-8 92q0 53 13 113.5t46 110.5t86 84t133 34t132 -31t84 -79t44.5 -107.5t12.5 -116.5q0 -82 -13.5 -142.5t-39 -110.5t-62.5 -95t-84 -94l102 -316h4 q23 82 31 150.5t10 115.5h174q-4 -43 -10 -102t-20.5 -130t-38 -148.5t-60.5 -157.5l111 -334h-231l-35 94q-39 -49 -95.5 -77.5t-121.5 -28.5q-59 0 -109.5 24.5t-75.5 50.5q-33 35 -53 83.5t-31.5 100.5t-15.5 106.5t-4 101.5zM262 459q0 -49 4 -97.5t15.5 -86t32 -61.5 t55.5 -24q20 0 54 19.5t52 85.5l-143 436q-16 -23 -28.5 -47.5t-22 -56t-14.5 -72.5t-5 -96zM367 1413q0 -66 21 -130.5t44 -119.5q29 33 44.5 68t22.5 66.5t8 55t1 31.5q0 6 -1 27t-8 42.5t-22.5 37.5t-42.5 16q-29 0 -48 -24.5t-19 -69.5z" />
<glyph unicode="'" horiz-adv-x="391" d="M106 1440v241h177v-241l-41 -279h-95z" />
<glyph unicode="(" horiz-adv-x="555" d="M63 754q0 158 28 289t75 243.5t107.5 214t127.5 199.5h109q-51 -113 -91 -216.5t-67.5 -213t-43 -233.5t-15.5 -277q0 -154 13 -274.5t41 -228t68 -213t95 -232.5h-109q-74 115 -136 220t-106 215.5t-70 233.5t-26 273z" />
<glyph unicode=")" horiz-adv-x="555" d="M45 -188q51 113 91 216t67.5 212.5t43 233.5t15.5 278t-13 273.5t-41 227t-68 214t-95 233.5h109q74 -115 136 -220.5t106 -216t70 -233.5t26 -272q0 -158 -28 -289t-75 -243.5t-107.5 -214t-127.5 -199.5h-109z" />
<glyph unicode="*" horiz-adv-x="788" d="M39 1417q0 29 19.5 55.5t58.5 26.5q25 0 43 -4t44.5 -19.5t64.5 -45t104 -78.5l4 4l-41 108q-16 51 -20.5 80t-4.5 45q0 109 84 109q29 0 45.5 -13.5t23.5 -32t8 -37t1 -26.5q0 -35 -8 -65.5t-19 -61.5q-2 -6 -8 -22.5t-12 -33.5t-11 -31.5t-7 -18.5l4 -4q49 39 86 66.5 t66.5 46t54 26.5t53.5 8t53.5 -19.5t24.5 -60.5q0 -39 -28 -59.5t-62.5 -29.5t-67.5 -11t-45 -2q-2 0 -20.5 1t-41 2t-42 2t-25.5 1l-4 -4q98 -59 162.5 -112.5t64.5 -108.5q0 -33 -20.5 -57.5t-55.5 -24.5q-31 0 -53.5 21.5t-42.5 59.5t-37.5 89t-36.5 110h-4 q-23 -84 -42 -137t-39.5 -86t-40 -45t-42.5 -12q-35 0 -59.5 24.5t-24.5 53.5q0 35 27 67.5t68 65.5q8 6 26.5 19.5t39 28.5t38.5 27.5t25 16.5l-5 4q-23 -4 -52 -5t-58 -1q-27 0 -62.5 3t-69.5 13t-57.5 29.5t-23.5 54.5z" />
<glyph unicode="+" horiz-adv-x="1366" d="M135 766v158h469v469h158v-469h469v-158h-469v-469h-158v469h-469z" />
<glyph unicode="," horiz-adv-x="405" d="M72 115q0 20 7 43.5t22.5 43t40 33t57.5 13.5q41 0 67.5 -17.5t42 -43t20.5 -54.5t5 -49q0 -31 -9.5 -70t-36 -76.5t-71.5 -71.5t-115 -54l-20 38q86 43 88 144q-12 6 -29.5 13t-33 21.5t-25.5 35t-10 51.5z" />
<glyph unicode="-" horiz-adv-x="555" d="M53 571v187h447v-187h-447z" />
<glyph unicode="." horiz-adv-x="405" d="M72 119q0 53 39 92t92 39t92 -39t39 -92t-39 -92t-92 -39t-92 39t-39 92z" />
<glyph unicode="/" horiz-adv-x="555" d="M0 -20l397 1701h158l-397 -1701h-158z" />
<glyph unicode="0" d="M63 315v1061q0 154 77 237t220 83q158 0 230 -89t72 -243v-1061q0 -57 -13.5 -113.5t-47.5 -100.5t-91 -71.5t-143 -27.5q-154 0 -229 86t-75 239zM281 274q0 -29 17 -61.5t64 -32.5q49 0 65.5 35t16.5 66v1130q0 35 -20.5 64.5t-58.5 29.5q-23 0 -39.5 -9t-26.5 -23.5 t-14 -31t-4 -30.5v-1137z" />
<glyph unicode="1" d="M119 1362v192l350 142h25v-1696h-218v1421z" />
<glyph unicode="2" d="M45 0l340 967q18 49 29.5 91t17.5 83t9 83t3 89q0 90 -14 138t-74 48q-49 0 -66.5 -43t-17.5 -158v-129h-217v142q0 39 6.5 103.5t36 127t88 108.5t162.5 46q78 0 132.5 -25.5t89 -64.5t53 -88.5t27.5 -96.5t10.5 -87t1.5 -60q0 -66 -11.5 -155t-54.5 -210l-250 -704h303 v-205h-604z" />
<glyph unicode="3" d="M51 367v190h217v-252q0 -12 2 -32.5t10.5 -39t26 -33t47.5 -14.5q25 0 41.5 12.5t25.5 30t13 37t4 35.5v297q0 74 -10 115t-34.5 60.5t-68.5 24.5t-112 7v180q66 2 109 12.5t69.5 33t36.5 59t10 96.5v166q0 55 -17.5 101t-72.5 46q-25 0 -40 -12t-24.5 -30.5t-12.5 -42 t-3 -44.5v-194h-217v153q0 53 10.5 116.5t43 119t92 93.5t155.5 38q76 0 133.5 -25.5t95 -70t56 -105.5t18.5 -133v-227q0 -57 -12 -96.5t-30.5 -66t-39 -43t-34.5 -26.5q23 -10 43 -23.5t36.5 -36t26.5 -55t10 -81.5v-347q0 -170 -69.5 -270t-231.5 -100q-98 0 -157.5 33.5 t-92 88t-43 121t-10.5 134.5z" />
<glyph unicode="4" d="M25 371v227l352 1098h219v-1125h82v-200h-82v-371h-217v371h-354zM172 571h207v654h-6z" />
<glyph unicode="5" d="M59 336v215h217v-272q0 -43 18.5 -68t59.5 -25q47 0 64.5 29t17.5 64v587q0 45 -27.5 68.5t-62.5 23.5q-27 0 -55.5 -22.5t-32.5 -89.5h-190v835h571v-196h-371v-377q23 25 53.5 45.5t98.5 20.5q70 0 115 -31t71.5 -77t36.5 -102.5t10 -107.5v-553q0 -45 -12 -99 t-45 -102.5t-91.5 -80t-152.5 -31.5q-158 0 -225.5 91t-67.5 255z" />
<glyph unicode="6" d="M57 332v1014q0 168 79 259t218 91q80 0 136.5 -25.5t93.5 -68.5t54 -98.5t17 -114.5v-105h-217v96q0 57 -18.5 88t-65.5 31t-63.5 -30.5t-16.5 -75.5v-363q25 27 65 52.5t105 25.5q111 0 161 -69.5t50 -174.5v-549q0 -68 -16 -126t-51 -103t-92.5 -70.5t-137.5 -25.5 q-82 0 -139 25.5t-93 71.5t-52.5 108.5t-16.5 136.5zM274 283q0 -41 19.5 -69t62.5 -28t62.5 28t19.5 69v512q0 41 -16 72.5t-62 31.5q-51 0 -68.5 -36t-17.5 -77v-503z" />
<glyph unicode="7" d="M86 1475v206h539v-174l-248 -1507h-219l243 1475h-315z" />
<glyph unicode="8" d="M61 281v399q0 61 14.5 100t36 63.5t46 38t45.5 21.5q-47 20 -75 42t-43 57.5t-19.5 92t-4.5 148.5q0 27 1 71t5.5 93t14.5 94t29 74q25 39 57.5 62.5t66 37t66.5 17.5t59 4q78 0 133.5 -23.5t90 -62.5t51 -89.5t16.5 -101.5v-325q0 -53 -16.5 -87t-39 -54.5t-46 -32 t-39.5 -17.5q25 -10 50.5 -23.5t48 -38t36.5 -63.5t14 -98v-406q0 -51 -14 -102t-48 -91t-91 -65.5t-141 -25.5q-80 0 -137.5 22.5t-94.5 62.5t-54.5 92t-17.5 114zM279 281q0 -37 18 -70t65 -33q49 0 64.5 36t15.5 67v413q0 41 -22.5 73t-65.5 32q-23 0 -38 -11.5t-23 -28 t-11 -33.5t-3 -32v-413zM287 1094q0 -35 13 -67t56 -32q45 0 62.5 33t17.5 66v323q0 33 -19.5 61.5t-56.5 28.5t-55 -30.5t-18 -59.5v-323z" />
<glyph unicode="9" d="M47 1061q0 45 2 119.5t8 151.5t18.5 144.5t35.5 102.5q37 55 97 88t146 33q94 0 153.5 -33t93.5 -85t46 -117.5t12 -129.5v-977q0 -14 -1 -46.5t-9 -73.5t-25.5 -85t-51 -80t-85 -59.5t-125.5 -23.5q-86 0 -143 27.5t-93 71.5t-51.5 98.5t-15.5 109.5v111h217 q0 -6 -1 -21.5t-1 -32v-31v-20.5q0 -20 4.5 -41.5t14.5 -38t26.5 -28t45.5 -11.5q43 0 60 34t17 63v374q-8 -8 -24.5 -21t-39 -25.5t-52 -21.5t-66.5 -9q-74 0 -116 36.5t-63.5 101t-27.5 152.5t-6 193zM276 872q0 -10 4.5 -24t12.5 -28.5t22.5 -24t36.5 -9.5 q35 0 62.5 22.5t27.5 88.5v512q0 41 -21.5 66.5t-60.5 25.5q-25 0 -41 -12t-25 -29.5t-13.5 -35t-4.5 -27.5v-525z" />
<glyph unicode=":" horiz-adv-x="405" d="M72 119q0 53 39 92t92 39t92 -39t39 -92t-39 -92t-92 -39t-92 39t-39 92zM72 776q0 53 39 92t92 39t92 -39t39 -92t-39 -92t-92 -39t-92 39t-39 92z" />
<glyph unicode=";" horiz-adv-x="405" d="M72 115q0 20 7 43.5t22.5 43t40 33t57.5 13.5q41 0 67.5 -17.5t42 -43t20.5 -54.5t5 -49q0 -31 -9.5 -70t-36 -76.5t-71.5 -71.5t-115 -54l-20 38q86 43 88 144q-12 6 -29.5 13t-33 21.5t-25.5 35t-10 51.5zM72 776q0 53 39 92t92 39t92 -39t39 -92t-39 -92t-92 -39 t-92 39t-39 92z" />
<glyph unicode="&#x3c;" horiz-adv-x="1366" d="M137 772v143l1094 459v-170l-883 -360l883 -361v-170z" />
<glyph unicode="=" horiz-adv-x="1366" d="M135 530v158h1096v-158h-1096zM135 1001v158h1096v-158h-1096z" />
<glyph unicode="&#x3e;" horiz-adv-x="1366" d="M135 313v170l883 361l-883 360v170l1094 -459v-143z" />
<glyph unicode="?" horiz-adv-x="555" d="M39 1446v225q35 10 74 18.5t102 8.5q96 0 155.5 -32t91.5 -78t42 -98t10 -91q0 -41 -7 -81t-23.5 -88t-43 -109.5t-65.5 -147.5q-27 -61 -49.5 -130t-40 -133.5t-27.5 -119.5t-10 -88v-58h-49q-16 66 -32.5 147t-16.5 167q0 31 3 69.5t13 88t29.5 113t50.5 142.5 q6 18 15 43t16.5 49.5t12.5 47t5 41.5q0 66 -34 100.5t-77 34.5q-39 0 -81 -15.5t-64 -25.5zM92 125q0 53 38 92t93 39q53 0 92 -39t39 -92q0 -59 -41 -95t-88 -36q-61 0 -97 40t-36 91z" />
<glyph unicode="@" horiz-adv-x="1683" d="M70 813q0 203 62.5 365.5t171 278.5t255 177.5t311.5 61.5q172 0 304.5 -55.5t222.5 -150.5t137 -224t47 -279q0 -172 -53 -301t-132 -214t-169 -128t-162 -43q-12 0 -33.5 2t-45 14.5t-43 40t-25.5 78.5q-68 -74 -128.5 -104.5t-121.5 -30.5q-51 0 -103.5 24.5t-95.5 77 t-69.5 133t-26.5 191.5q0 117 26.5 233.5t78.5 210t128 150.5t172 57q55 0 95 -17.5t69 -43t48.5 -56t33.5 -57.5h4l23 146h155l-108 -648q0 -4 -4 -26.5t-8.5 -51t-7.5 -57t-3 -45.5q0 -20 6 -31.5t14.5 -16.5t17.5 -6t13 -1q49 0 104.5 35t103.5 100.5t80 158.5t32 208 q0 147 -49 257.5t-129 184.5t-182.5 111t-211.5 37q-129 0 -249.5 -49.5t-214 -145.5t-149.5 -236.5t-56 -324.5q0 -186 59.5 -319.5t154.5 -218.5t213 -125t234 -40q145 0 279.5 50.5t240.5 150.5h177q-18 -25 -38 -50.5t-46.5 -51t-63.5 -53t-88 -56.5 q-123 -68 -238.5 -94.5t-226.5 -26.5q-166 0 -311 58.5t-251.5 168t-168 265t-61.5 352.5zM541 711q0 -92 19.5 -145.5t46 -80t53 -34t42.5 -7.5q55 0 96.5 34t70 88.5t48 120t30.5 129t15.5 117.5t4.5 83q0 27 -5.5 64.5t-21.5 72.5t-47 58.5t-82 23.5q-78 0 -130 -57.5 t-83 -139.5t-44 -171.5t-13 -155.5z" />
<glyph unicode="A" horiz-adv-x="788" d="M25 0l264 1698h213l256 -1698h-240l-22 221h-203l-25 -221h-243zM313 426h158l-76 711h-4z" />
<glyph unicode="B" horiz-adv-x="788" d="M66 0v1681h305q168 0 259 -82.5t91 -287.5v-168q0 -72 -14.5 -115t-38 -69.5t-53 -39t-60.5 -20.5v-4q23 -6 52.5 -19.5t57 -39t46 -68.5t18.5 -109v-346q0 -88 -26.5 -148.5t-69.5 -97t-95.5 -52t-103.5 -15.5h-368zM311 209h68q57 0 80.5 35t23.5 88v340q0 47 -26.5 85 t-77.5 38h-68v-586zM311 999h74q41 0 69.5 29t28.5 84v238q0 20 -6 41.5t-19.5 40t-35 30t-53.5 11.5h-58v-474z" />
<glyph unicode="C" horiz-adv-x="788" d="M53 356v942q0 188 92.5 293t249.5 105q76 0 137.5 -25.5t104.5 -70t65.5 -105.5t22.5 -135v-178h-246v129q0 82 -10 129t-70 47q-33 0 -52 -13.5t-30.5 -35t-14.5 -47t-3 -50.5v-1026q0 -43 21.5 -81.5t68.5 -38.5q41 0 65.5 29.5t24.5 70.5v250h246v-213 q0 -90 -28.5 -155.5t-76 -107.5t-107.5 -62.5t-124 -20.5q-86 0 -148.5 30.5t-104.5 82t-62.5 118t-20.5 139.5z" />
<glyph unicode="D" horiz-adv-x="788" d="M59 0v1681h326q162 0 250 -109.5t88 -303.5v-912q0 -68 -15.5 -131t-52.5 -113.5t-98 -81t-151 -30.5h-347zM305 209h68q45 0 74.5 25.5t29.5 72.5v1055q0 51 -25.5 81t-78.5 30h-68v-1264z" />
<glyph unicode="E" horiz-adv-x="641" d="M53 0v1681h529v-208h-283v-508h268v-209h-268v-547h293v-209h-539z" />
<glyph unicode="F" horiz-adv-x="555" d="M53 0v1681h445v-208h-199v-508h184v-209h-184v-756h-246z" />
<glyph unicode="G" horiz-adv-x="788" d="M61 360v932q0 23 3.5 62t13.5 84t31.5 90t59.5 83t94 61.5t138 23.5q90 0 152.5 -28t100.5 -73t54.5 -101t16.5 -114v-202h-246v198q0 37 -14 74t-66 37q-27 0 -44 -10.5t-28.5 -25.5t-15.5 -31.5t-4 -28.5v-1106q0 -41 23.5 -65.5t60.5 -24.5q41 0 64.5 27.5t23.5 62.5 v397h-86v209h332v-555q0 -164 -88 -257t-248 -93q-90 0 -151.5 29.5t-101.5 80.5t-57.5 120t-17.5 144z" />
<glyph unicode="H" horiz-adv-x="788" d="M63 0v1681h246v-708h172v708h246v-1681h-246v756h-172v-756h-246z" />
<glyph unicode="I" horiz-adv-x="405" d="M80 0v1681h246v-1681h-246z" />
<glyph unicode="J" horiz-adv-x="405" d="M39 53q33 10 40 33t7 33v1562h246v-1577q0 -111 -35 -170t-83 -86.5t-97 -31.5t-78 -4v241z" />
<glyph unicode="K" horiz-adv-x="788" d="M53 0v1681h246v-788h4l199 788h233l-233 -776l252 -905h-252l-199 877h-4v-877h-246z" />
<glyph unicode="L" horiz-adv-x="555" d="M63 0v1681h246v-1472h205v-209h-451z" />
<glyph unicode="M" horiz-adv-x="960" d="M35 0l78 1681h151l207 -876h4l221 876h156l74 -1681h-230l-14 946h-4l-172 -760h-55l-170 746h-5l-12 -932h-229z" />
<glyph unicode="N" horiz-adv-x="788" d="M55 0v1681h160q33 -92 62.5 -180t62.5 -190.5t72 -231.5t90 -305h4v907h227v-1681h-164q-43 119 -76.5 221.5t-66.5 204.5t-66.5 215t-72.5 252h-4v-893h-228z" />
<glyph unicode="O" horiz-adv-x="788" d="M61 426v846q0 55 12.5 128t48.5 139.5t101.5 111.5t173.5 45q82 0 144.5 -30t102.5 -82t60.5 -125t20.5 -159v-925q0 -70 -16.5 -139.5t-55.5 -125t-102.5 -90t-157.5 -34.5q-96 0 -160.5 37.5t-102.5 100t-53.5 141.5t-15.5 161zM307 350q0 -66 15.5 -110.5t72.5 -44.5 q47 0 65.5 37.5t18.5 91.5v1058q0 47 -21.5 76t-66.5 29q-29 0 -45 -14.5t-24.5 -35t-11.5 -44t-3 -41.5v-1002z" />
<glyph unicode="P" horiz-adv-x="788" d="M66 0v1681h299q94 0 160.5 -28.5t109.5 -78.5t63.5 -119t20.5 -148v-465q0 -59 -15.5 -117.5t-51.5 -106t-96 -77t-150 -29.5h-95v-512h-245zM311 721h56q63 0 84.5 41t21.5 94v490q0 68 -25.5 97.5t-89.5 29.5h-47v-752z" />
<glyph unicode="Q" horiz-adv-x="788" d="M78 401v904q0 57 14 126.5t51 128t101.5 98.5t163.5 40q92 0 155.5 -34t102.5 -90t56 -131t17 -157v-872q0 -100 -17 -166t-43 -108t-52.5 -65.5t-44.5 -35.5q29 -23 51 -34t47 -11q39 0 68 20l22 -20l-106 -182q-55 2 -99.5 11t-81.5 30.5t-70.5 57.5t-68.5 89 q-76 14 -127 51t-82 90.5t-44 120t-13 139.5zM324 360q0 -23 2 -49t10 -49.5t24.5 -40t47.5 -16.5t48 18.5t25 42t10.5 46t2.5 30.5v1038q0 43 -21.5 76t-64.5 33q-27 0 -43.5 -12.5t-25.5 -32t-12 -43t-3 -43.5v-998z" />
<glyph unicode="R" horiz-adv-x="788" d="M59 0v1681h338q166 0 244 -99t78 -259v-152q0 -86 -19.5 -139t-47 -81.5t-58.5 -41t-55 -18.5v-4q29 -10 60.5 -24.5t58 -43t44 -78t17.5 -129.5v-612h-246v659q0 59 -37 93t-88 34h-43v-786h-246zM305 995q37 0 67.5 3t53.5 12.5t35 27t12 47.5v297q0 51 -36 71t-75 20 h-57v-478z" />
<glyph unicode="S" d="M43 330v168h244v-219q0 -25 13 -54.5t58 -29.5q29 0 45.5 13t23.5 33.5t9 45t2 49.5q0 84 -2 138t-15 97t-42 86t-82 105q-57 66 -103.5 124t-79 119.5t-51 134t-18.5 169.5q0 43 8 108.5t39 127t93.5 106.5t170.5 45q160 0 239 -90t79 -234v-182h-244v207 q0 39 -17.5 64.5t-54.5 25.5q-25 0 -40 -12.5t-23 -32t-10 -44t-2 -46.5q0 -76 12 -132.5t39.5 -107.5t72 -104.5t107.5 -124.5q37 -43 67.5 -86t54 -98.5t36 -125t12.5 -163.5v-54q0 -45 -11 -108.5t-47 -121.5t-100.5 -99t-171.5 -41q-164 0 -237.5 94t-73.5 250z" />
<glyph unicode="T" horiz-adv-x="641" d="M31 1473v208h577v-208h-168v-1473h-245v1473h-164z" />
<glyph unicode="U" horiz-adv-x="788" d="M66 332v1349h243v-1378q0 -45 16.5 -74.5t63.5 -29.5q57 0 72.5 40t15.5 91v1351h246v-1312q0 -55 -14.5 -123t-51 -125.5t-99 -96t-159.5 -38.5q-90 0 -153.5 31.5t-103.5 82t-58 111.5t-18 121z" />
<glyph unicode="V" horiz-adv-x="788" d="M31 1681h237l121 -1032h4l123 1032h242l-262 -1695h-213z" />
<glyph unicode="W" horiz-adv-x="1110" d="M31 1681h239l86 -1122h4l109 1122h170l111 -1122h4l90 1122h233l-225 -1695h-184l-111 1124h-4l-109 -1124h-184z" />
<glyph unicode="X" d="M37 0l176 856l-170 825h240l77 -608h5l77 608h240l-172 -817l178 -864h-246l-77 649h-5l-77 -649h-246z" />
<glyph unicode="Y" d="M37 1681h242l83 -663h5l82 663h239l-203 -870v-811h-245v803z" />
<glyph unicode="Z" horiz-adv-x="555" d="M29 0l229 1473h-221v208h487l-227 -1472h227v-209h-495z" />
<glyph unicode="[" horiz-adv-x="555" d="M72 -168v1849h434v-155h-213v-1534h213v-160h-434z" />
<glyph unicode="\" horiz-adv-x="555" d="M0 1681h158l397 -1701h-158z" />
<glyph unicode="]" horiz-adv-x="555" d="M49 -8h213v1530h-213v159h434v-1849h-434v160z" />
<glyph unicode="^" horiz-adv-x="960" d="M55 881l353 800h145l354 -800h-180l-248 598l-239 -598h-185z" />
<glyph unicode="_" horiz-adv-x="1024" d="M-12 -154h1048v-102h-1048v102z" />
<glyph unicode="`" horiz-adv-x="681" d="M160 1731h180l84 -322h-98z" />
<glyph unicode="a" d="M61 295v696q0 45 8.5 105.5t32 116t65.5 93t109 37.5q35 0 60.5 -9t43 -23.5t29 -29.5t19.5 -30h4v80h217v-1331h-217v86h-4q-29 -45 -70 -70.5t-88 -25.5q-92 0 -150.5 77.5t-58.5 227.5zM279 276q0 -33 14 -65.5t55 -32.5q14 0 29.5 9.5t28 23.5t19.5 29.5t7 25.5v828 q-12 16 -30.5 34.5t-47.5 18.5q-25 0 -40 -13.5t-23 -34t-10 -42t-2 -37.5v-744z" />
<glyph unicode="b" d="M68 0v1681h217v-448h4q6 14 18 33.5t31.5 36t47.5 28.5t65 12q68 0 108.5 -38.5t61 -95t26.5 -119t6 -107.5v-623q0 -29 -6 -90t-27.5 -123.5t-64.5 -109.5t-119 -47q-49 0 -80.5 24.5t-66.5 69.5h-4v-84h-217zM285 250q0 -20 21.5 -44t58.5 -24q25 0 39 13.5t21 32t9 37 t2 26.5v751q0 12 -2 31t-9 35t-19.5 27.5t-32.5 11.5q-37 0 -62.5 -33t-25.5 -57v-807z" />
<glyph unicode="c" d="M82 326v665q0 53 11 115.5t43 115t87.5 87t143.5 34.5q76 0 130 -25.5t89 -69.5t51 -104.5t16 -129.5v-185h-217v209q0 16 -2 35t-9 35t-19.5 27.5t-32.5 11.5q-37 0 -55.5 -28.5t-18.5 -57.5v-770q0 -33 15.5 -69t50.5 -36q20 0 33.5 11.5t21.5 29t12 37t4 37.5v203h217 v-154q0 -49 -11 -111.5t-42 -117.5t-85 -93t-140 -38q-141 0 -217 90t-76 246z" />
<glyph unicode="d" d="M66 311v670q0 174 59 268t158 94q61 0 99 -29.5t56 -51.5v419h217v-1681h-217v94h-4q-33 -49 -66.5 -77.5t-93.5 -28.5q-78 0 -120.5 42t-62 97t-22.5 108.5t-3 75.5zM283 274q0 -39 19.5 -70.5t49.5 -31.5q29 0 57.5 24.5t28.5 53.5v852q-16 16 -34.5 30.5t-43.5 14.5 t-39 -13.5t-23 -33t-12 -42t-3 -42.5v-742z" />
<glyph unicode="e" d="M70 297v739q0 57 17 112.5t53 98.5t91.5 69.5t130.5 26.5q125 0 208 -76.5t83 -219.5v-441h-366v-342q0 -47 25.5 -62.5t47.5 -15.5q41 0 58.5 29t17.5 76v127h217v-156q0 -43 -15 -90t-49 -88t-88.5 -67.5t-131.5 -26.5q-80 0 -136.5 25.5t-93.5 68.5t-53 98.5 t-16 114.5zM287 786h149v275q0 39 -19.5 62.5t-58.5 23.5t-55 -31t-16 -55v-275z" />
<glyph unicode="f" horiz-adv-x="405" d="M33 1141v190h47v39q0 113 26.5 176.5t67.5 95t89 41t93 11.5v-199q-53 -8 -71.5 -40t-18.5 -66v-58h82v-190h-51v-1141h-217v1141h-47z" />
<glyph unicode="g" d="M63 -119l72 154q35 -18 74 -34.5t90 -16.5q70 0 102.5 35.5t32.5 86.5v101h-4q-10 -16 -23.5 -35.5t-34 -37t-47 -29t-61.5 -11.5q-66 0 -104.5 34t-60 85t-29 107.5t-7.5 103.5v553q0 74 12.5 140.5t39 116.5t67.5 79.5t99 29.5q53 0 83.5 -22.5t69.5 -65.5v76h217 v-1145q0 -115 -27.5 -187.5t-74.5 -113.5t-110.5 -57t-137.5 -16q-84 0 -134 17t-104 52zM281 375q0 -45 20.5 -70.5t50.5 -25.5q31 0 56.5 31.5t25.5 64.5v710q0 16 -24.5 39t-55.5 23q-20 0 -34.5 -11.5t-22.5 -28.5t-12 -36.5t-4 -36.5v-659z" />
<glyph unicode="h" d="M68 0v1681h217v-405q16 18 51 42.5t90 24.5q57 0 99 -25.5t70 -68.5t41 -98t13 -113v-1038h-217v1038q0 47 -22.5 79t-57.5 32q-31 0 -49 -20.5t-18 -32.5v-1096h-217z" />
<glyph unicode="i" horiz-adv-x="405" d="M82 1532q0 51 35 86t86 35q49 0 85 -35t36 -86q0 -53 -37 -87t-82 -34q-55 0 -89 37t-34 84zM94 0v1331h217v-1331h-217z" />
<glyph unicode="j" horiz-adv-x="405" d="M35 6q25 4 40 16.5t15 57.5v1251h219v-1280q0 -86 -31.5 -134t-74.5 -71.5t-86 -28.5t-68 -5zM70 1534q0 51 34.5 86t85.5 35q49 0 85 -35t36 -86q0 -53 -36.5 -87t-81.5 -34q-55 0 -89 37t-34 84z" />
<glyph unicode="k" d="M53 0v1681h217v-942h4l187 592h201l-201 -569l201 -762h-201l-187 709h-4v-709h-217z" />
<glyph unicode="l" horiz-adv-x="405" d="M94 0v1681h217v-1681h-217z" />
<glyph unicode="m" horiz-adv-x="1110" d="M59 0v1331h217v-63q33 29 70 52t96 23q8 0 29 -2t47.5 -13t55 -36.5t53.5 -70.5q23 39 50.5 63.5t55 37.5t53 17t41.5 4q72 0 116 -34.5t67.5 -86t32 -110.5t8.5 -106v-1006h-217v997q0 27 -4.5 53.5t-14.5 48t-28.5 35t-45.5 13.5q-35 0 -55 -19.5t-20 -23.5 q-2 -6 -2 -49v-1055h-218v1018q0 14 -2 36.5t-11 44t-25.5 37t-42.5 15.5q-29 0 -47.5 -12.5t-41.5 -32.5v-1106h-217z" />
<glyph unicode="n" d="M70 0v1331h217v-65h4q33 47 74 62t69 15q90 0 155.5 -77.5t65.5 -239.5v-1026h-217v1047q0 14 -5 31.5t-14 32.5t-24.5 25.5t-34.5 10.5q-29 0 -51 -18.5t-22 -41.5v-1087h-217z" />
<glyph unicode="o" d="M72 354v672q0 39 13 94.5t46 104.5t88 83.5t141 34.5t142.5 -33.5t90.5 -84.5t47 -112.5t13 -117.5v-651q0 -59 -13 -121.5t-47 -114t-89 -85t-137 -33.5q-84 0 -140.5 32.5t-91.5 85t-49 117t-14 129.5zM289 299q0 -18 3 -37.5t11 -36t22.5 -28t39.5 -11.5q23 0 37 12.5 t21 30t10 35t3 29.5v747q0 6 -2 23.5t-10 36t-22.5 33t-39.5 14.5q-23 0 -37 -10.5t-22 -26.5t-11 -34.5t-3 -35.5v-741z" />
<glyph unicode="p" d="M70 -188v1519h217v-80h4q16 29 48 60.5t95 31.5q45 0 84 -22.5t68.5 -67.5t47 -115.5t17.5 -164.5v-680q0 -66 -14 -121t-41 -95t-65.5 -63.5t-88.5 -23.5q-53 0 -83.5 24.5t-71.5 69.5v-272h-217zM287 262q0 -6 5 -21.5t15 -29.5t24.5 -25.5t35.5 -11.5q25 0 38 10.5 t20 24.5t8 29.5t1 23.5v787q0 10 -4 26.5t-12 32.5t-23.5 27.5t-36.5 11.5q-25 0 -45 -17.5t-20 -23.5l-4 -8h-2v-836z" />
<glyph unicode="q" d="M70 268v750q0 59 13 117.5t41 104.5t67.5 74.5t93.5 28.5q16 0 56 -10t97 -67v65h217v-1519h-217v260q-35 -35 -69.5 -58.5t-89.5 -23.5q-51 0 -90 24.5t-66 64.5t-40 89t-13 100zM287 270q0 -41 19.5 -68.5t51.5 -27.5q14 0 28.5 8t26 20.5t18.5 24t7 17.5v860 q0 6 -23.5 24.5t-54.5 18.5q-41 0 -57 -35t-16 -65v-777z" />
<glyph unicode="r" horiz-adv-x="468" d="M63 0v1331h218v-157h4q20 76 29.5 104.5t17.5 40.5q17 24 41 24h2q27 0 36 -10t13 -20v-217q-8 4 -18.5 9t-32.5 5q-29 0 -46.5 -16.5t-27.5 -44t-14 -63.5t-4 -75v-911h-218z" />
<glyph unicode="s" horiz-adv-x="641" d="M47 324v102h189v-82q0 -68 12 -111t57 -43q35 0 53.5 33t18.5 107q0 61 -9.5 103t-30 78t-53 73t-81.5 86q-16 16 -42 45.5t-50.5 72.5t-43 98.5t-18.5 125.5q0 49 14.5 107.5t46 108.5t85 82.5t131.5 32.5q100 0 154.5 -43t79 -101t28.5 -118.5t4 -95.5v-67h-182v92 q0 51 -14.5 92t-55.5 41q-25 0 -39 -14.5t-22.5 -34t-10.5 -41t-2 -33.5q0 -37 6.5 -64.5t21.5 -53t40.5 -53.5t62.5 -65q31 -31 66 -71.5t64.5 -94t48 -121t18.5 -153.5q0 -41 -9.5 -100.5t-39 -116.5t-87 -97t-153.5 -40q-72 0 -121 24.5t-79.5 68.5t-44 105.5 t-13.5 135.5z" />
<glyph unicode="t" horiz-adv-x="405" d="M37 1141v190h57v256h217v-256h58v-190h-58v-1141h-217v1141h-57z" />
<glyph unicode="u" d="M66 328v1003h217v-1038q0 -10 2 -28.5t10 -38t24.5 -34t45.5 -14.5q51 0 64 39t13 82v1032h217v-1009q0 -66 -14 -126.5t-48 -106.5t-91 -72.5t-144 -26.5q-82 0 -138 26.5t-92 72.5t-51 107.5t-15 131.5z" />
<glyph unicode="v" horiz-adv-x="641" d="M33 1331h217l69 -856h5l69 856h215l-200 -1341h-172z" />
<glyph unicode="w" horiz-adv-x="1044" d="M35 1331h215l82 -833h4l100 833h172l109 -839h4l74 839h213l-207 -1341h-164l-111 844h-4l-102 -844h-170z" />
<glyph unicode="x" d="M35 0l217 688l-217 643h217l108 -467h5l106 467h217l-217 -643l217 -688h-217l-106 475h-5l-102 -475h-223z" />
<glyph unicode="y" horiz-adv-x="641" d="M27 1331h215l75 -858h5l61 858h215l-174 -1138q-12 -80 -19.5 -128.5t-14.5 -78t-14 -48t-20 -38.5q-25 -45 -66.5 -66.5t-94.5 -21.5q-39 0 -60.5 7t-40.5 17v209q16 -12 34.5 -23.5t37.5 -11.5q27 0 48 37q17 28 17 60q0 11 -2 22z" />
<glyph unicode="z" horiz-adv-x="468" d="M29 0l176 1167h-164v164h397l-176 -1175h176v-156h-409z" />
<glyph unicode="{" horiz-adv-x="684" d="M100 647v189q35 2 64 5t50.5 28.5t32.5 84t11 170.5v168q0 147 33 229.5t83 122t111.5 48t116.5 8.5v-158q-49 -4 -79.5 -14t-48 -39t-23 -83t-5.5 -146v-162q0 -104 -13 -169t-34.5 -101.5t-48 -54.5t-53.5 -32q27 -14 53.5 -31.5t48 -54.5t34.5 -101.5t13 -168.5v-162 q0 -92 5.5 -146t23 -83t48 -39t79.5 -14v-158q-55 0 -116.5 8t-111.5 48t-83 122t-33 229v168q0 113 -11 171.5t-32.5 84t-50.5 28.5t-64 5z" />
<glyph unicode="|" horiz-adv-x="1118" d="M481 -184v1865h156v-1865h-156z" />
<glyph unicode="}" horiz-adv-x="684" d="M82 -59q49 4 80 14t48 39t22.5 83t5.5 146v162q0 104 13 168.5t34.5 101.5t48 54.5t53.5 31.5q-27 14 -53.5 32t-48 54.5t-34.5 101t-13 169.5v162q0 92 -5.5 146t-22.5 83t-48 39t-80 14v158q55 0 116.5 -8.5t111.5 -48t83 -121.5t33 -230v-168q0 -113 11.5 -171 t33 -83.5t50 -28.5t63.5 -5v-189q-35 -2 -63.5 -5t-50 -28.5t-33 -84t-11.5 -171.5v-168q0 -147 -33 -229t-83 -122t-111.5 -48t-116.5 -8v158z" />
<glyph unicode="~" horiz-adv-x="1343" d="M127 707v167q57 49 108.5 75t91.5 38t66.5 14.5t36.5 2.5q27 0 54.5 -4.5t60.5 -15.5t76 -29.5t102 -45.5q47 -23 102.5 -44t100.5 -21q47 0 91 15t81 37t66.5 47.5t52.5 43.5v-170q-57 -49 -106.5 -75.5t-87.5 -39t-63.5 -14.5t-33.5 -2q-31 0 -60.5 4t-64.5 15.5 t-79 31t-106 49.5q-72 35 -115.5 48.5t-78.5 13.5q-47 0 -92 -15.5t-83 -38t-70 -47t-50 -40.5z" />
<glyph unicode="&#xa1;" horiz-adv-x="405" d="M72 1212q0 53 39 92t92 39q55 0 93 -38.5t38 -92.5q0 -59 -40 -95t-87 -36q-61 0 -98 40t-37 91zM82 -127q0 113 6 217.5t17.5 221t30 255t42.5 318.5h51q25 -182 43.5 -321.5t30.5 -256.5t18.5 -224.5t6.5 -225.5q0 -31 -4.5 -69t-16.5 -70.5t-36.5 -55t-65.5 -22.5 q-45 0 -69.5 24.5t-37 60t-14.5 76.5t-2 72z" />
<glyph unicode="&#xa2;" d="M92 328v663q0 53 11.5 115.5t41.5 116.5q33 53 88.5 86.5t143.5 33.5q31 0 50 -2t31.5 -4t19.5 -6t16 -6l41 172h83l-51 -217q37 -35 67 -98.5t30 -167.5v-185h-207l-138 -585q4 -23 18.5 -39.5t37.5 -16.5q20 0 33.5 11.5t21.5 29t12 37t4 37.5v201h218v-152 q0 -72 -16.5 -137t-50.5 -114.5t-86 -79t-126 -29.5q-16 0 -51 3t-70 17l-39 -157h-84l47 206q-10 10 -26.5 30t-31.5 50.5t-26.5 75.5t-11.5 111zM309 565h4l119 512q2 16 -6 43t-43 27q-37 0 -55.5 -28.5t-18.5 -57.5v-496z" />
<glyph unicode="&#xa3;" d="M35 -8v178q14 12 27.5 27.5t23.5 45t17.5 79t7.5 129.5v155l-3 29q-2 29 -4 62.5t-4 63.5t-2 34h-63v190h55q-4 45 -8 124t-4 153q0 41 4 114.5t30.5 145t85 124t164.5 52.5q74 0 128.5 -25.5t88 -68.5t50 -100.5t16.5 -121.5v-63h-207v43q0 70 -17.5 105.5t-58.5 35.5 q-33 0 -54 -27.5t-21 -117.5q0 -23 2 -76t4 -112.5t4 -111.5t2 -73h164v-190h-154q2 -29 4 -73t2 -116q0 -41 -3 -91t-9 -102.5t-16.5 -99.5t-26.5 -82q8 0 27.5 -2t41 -5t41 -5t27.5 -2q41 0 53.5 32t12.5 60v66h201v-101q0 -55 -12.5 -106t-39 -91t-69.5 -64.5t-103 -24.5 q-16 0 -57 5t-86 12t-86 12.5t-55 5.5q-35 0 -48.5 -7.5t-35.5 -23.5h-37z" />
<glyph unicode="&#xa4;" horiz-adv-x="1406" d="M207 455l127 127q-27 37 -54.5 96t-27.5 166q0 106 27.5 165.5t54.5 100.5l-127 127l104 104l127 -127q39 25 100.5 53.5t166.5 28.5q102 0 162.5 -27.5t101.5 -54.5l127 127l104 -104l-127 -127q27 -39 54.5 -99.5t27.5 -166.5q0 -104 -26.5 -165t-53.5 -97l127 -127 l-106 -107l-127 127q-41 -27 -99.5 -54.5t-164.5 -27.5t-167 28t-98 54l-127 -127zM395 846q0 -68 22.5 -124t64.5 -98t98.5 -64.5t124.5 -22.5t124 22.5t97 64.5t63.5 98t22.5 124t-22.5 124t-63.5 97t-97 63.5t-124 22.5t-124.5 -22.5t-97.5 -62.5t-64.5 -97.5 t-23.5 -124.5z" />
<glyph unicode="&#xa5;" d="M37 463v184h205v156l-9 31h-196v184h153l-153 663h242l83 -663h5l82 663h239l-156 -663h156v-184h-203v-187h203v-184h-203v-463h-243v463h-205z" />
<glyph unicode="&#xa6;" horiz-adv-x="1118" d="M481 -184v796h156v-796h-156zM481 885v796h156v-796h-156z" />
<glyph unicode="&#xa7;" horiz-adv-x="641" d="M53 817q0 92 4 151.5t15.5 99.5t29 65.5t43.5 52.5q-16 33 -39.5 91t-23.5 144q0 53 11 103.5t39 88.5t74 61.5t116 23.5q125 0 193.5 -67.5t68.5 -239.5v-45h-185v63q0 16 -2 34.5t-8 34t-20.5 25.5t-38.5 10q-41 0 -52.5 -29.5t-11.5 -53.5q0 -72 38 -122.5t110 -119.5 q35 -35 66.5 -72t55 -80t38 -94t14.5 -113v-272q0 -57 -10.5 -96t-24.5 -65.5t-30.5 -44t-30.5 -29.5q18 -37 31.5 -65t20.5 -52.5t11 -50t4 -58.5q0 -123 -64.5 -203.5t-187.5 -80.5q-127 0 -188.5 72.5t-61.5 195.5v80h185v-64q0 -47 12 -77.5t53 -30.5q37 0 55.5 27.5 t18.5 66.5q0 25 -7 47.5t-23.5 48t-46.5 58t-75 79.5q-49 51 -82.5 92.5t-54 93.5t-30 125.5t-9.5 190.5zM242 745q0 -49 6 -85.5t20.5 -67.5t40 -59.5t62.5 -63.5q10 23 16 53.5t9 61t3 56.5v40v96q0 43 -5 75t-19.5 60.5t-38 58t-62.5 68.5q-10 -10 -17 -31.5t-10 -46 t-4 -49t-1 -39.5v-127z" />
<glyph unicode="&#xa8;" horiz-adv-x="681" d="M100 1573q0 66 36 98.5t71 32.5q45 0 75.5 -38t30.5 -93q0 -57 -31.5 -95t-74.5 -38q-41 0 -74 35.5t-33 97.5zM369 1573q0 66 35.5 98.5t70.5 32.5q45 0 76 -38t31 -93q0 -57 -32 -95t-75 -38q-41 0 -73.5 35.5t-32.5 97.5z" />
<glyph unicode="&#xa9;" horiz-adv-x="1511" d="M0 940q0 158 59.5 296t163 240.5t240.5 161t293 58.5t293 -59.5t240.5 -162t162.5 -239.5t59 -295q0 -156 -59 -293t-161.5 -240.5t-241 -163t-293.5 -59.5q-156 0 -293 59.5t-240.5 163t-163 240.5t-59.5 293zM127 940q0 -129 49 -243.5t134 -200.5t200 -135.5 t246 -49.5t245.5 49.5t199.5 135.5t134 200.5t49 243.5q0 131 -50 247t-135 199.5t-199.5 133t-243.5 49.5t-244 -49.5t-200 -133t-135 -199.5t-50 -247zM362 938q0 199 106.5 312.5t295.5 113.5q119 0 212 -56.5t130 -179.5l-119 -30q-23 57 -56.5 88t-67.5 46t-62.5 18 t-40.5 3q-72 0 -122 -28.5t-81 -74.5t-45 -102.5t-14 -113.5q0 -80 20.5 -138.5t54 -96t79.5 -56t98 -18.5q18 0 54 6t72.5 25.5t70.5 57.5t50 103l123 -35q-16 -72 -53 -123t-85 -84.5t-106.5 -50t-117.5 -16.5q-86 0 -159 28.5t-125 84t-82 135.5t-30 182z" />
<glyph unicode="&#xaa;" horiz-adv-x="448" d="M41 1038v445q0 29 7 65.5t22.5 70.5t41 56.5t64.5 22.5q41 0 60.5 -17.5t31.5 -38.5h4v46h136v-824h-136v58h-4q-14 -29 -37.5 -45.5t-58.5 -16.5t-59.5 15.5t-41 41t-23.5 57.5t-7 64zM176 1032q0 -25 11.5 -41t31.5 -16q27 0 40 23.5t13 33.5v504q0 4 -12 22.5 t-37 18.5q-29 0 -38 -27.5t-9 -44.5v-473z" />
<glyph unicode="&#xab;" horiz-adv-x="788" d="M70 758l137 659h174l-137 -659l137 -666h-174zM406 758l137 659h174l-137 -659l137 -666h-174z" />
<glyph unicode="&#xac;" horiz-adv-x="1366" d="M135 1001v158h1096v-629h-158v471h-938z" />
<glyph unicode="&#xad;" horiz-adv-x="555" d="M53 571v187h447v-187h-447z" />
<glyph unicode="&#xae;" horiz-adv-x="1511" d="M0 940q0 158 59.5 296t163 240.5t240.5 161t293 58.5t293 -59.5t240.5 -162t162.5 -239.5t59 -295q0 -156 -59 -293t-161.5 -240.5t-241 -163t-293.5 -59.5q-156 0 -293 59.5t-240.5 163t-163 240.5t-59.5 293zM127 940q0 -129 49 -243.5t134 -200.5t200 -135.5 t246 -49.5t245.5 49.5t199.5 135.5t134 200.5t49 243.5q0 131 -50 247t-135 199.5t-199.5 133t-243.5 49.5t-244 -49.5t-200 -133t-135 -199.5t-50 -247zM424 522v813h281q66 0 117.5 -4t101.5 -24q51 -20 89 -72.5t38 -120.5q0 -33 -12.5 -70.5t-40 -71.5t-71.5 -57.5 t-108 -27.5v-4q18 -6 35.5 -15.5t39 -31t49.5 -57.5t65 -97l98 -160h-160l-72 129q-37 66 -64.5 108t-53 66.5t-55 33.5t-68.5 9h-78v-346h-131zM555 979h160q23 0 56.5 2t64 13.5t53 37t22.5 72.5q0 45 -21.5 69.5t-52 36t-66.5 13.5t-66 2h-150v-246z" />
<glyph unicode="&#xaf;" horiz-adv-x="681" d="M145 1507v119h392v-119h-392z" />
<glyph unicode="&#xb0;" horiz-adv-x="819" d="M104 1391q0 63 24 118.5t66 96.5t97.5 65.5t118.5 24.5t118.5 -24.5t96.5 -65.5t65.5 -96.5t24.5 -118.5t-24.5 -118.5t-65.5 -97.5t-96.5 -66t-118.5 -24t-118.5 24t-97.5 66t-66 97t-24 119zM240 1389q0 -72 49 -120t119 -48t121 48t51 120t-50.5 122t-121.5 50 q-70 0 -119 -50t-49 -122z" />
<glyph unicode="&#xb1;" horiz-adv-x="1366" d="M135 0v158h1096v-158h-1096zM135 807v158h469v469h158v-469h469v-158h-469v-469h-158v469h-469z" />
<glyph unicode="&#xb2;" horiz-adv-x="512" d="M51 920l211 440q14 31 28.5 74t14.5 102q0 47 -14.5 62.5t-38.5 15.5q-33 0 -46 -22.5t-13 -49.5v-96h-130v90q0 25 7.5 53.5t27 53t54 40t90.5 15.5q41 0 76.5 -7.5t62.5 -26.5t42 -53t15 -85q0 -45 -13 -87t-32 -79l-153 -313h192v-127h-381z" />
<glyph unicode="&#xb3;" horiz-adv-x="512" d="M63 1075v123h132v-123q0 -23 13 -50.5t46 -27.5q23 0 35 11.5t18 29t7 37t1 35.5q0 92 -9 132t-66 40h-70v92h63q57 0 70.5 32t13.5 83q0 53 -7 91t-52 38q-31 0 -47 -27.5t-16 -52.5v-86h-125v86q0 27 6 56.5t25.5 53t54 39t94.5 15.5q63 0 102 -12.5t60.5 -38t29 -64.5 t7.5 -92q0 -49 -4.5 -77.5t-12.5 -45t-21.5 -25t-31.5 -16.5q20 -10 33.5 -20.5t21.5 -23.5t10 -34.5t2 -54.5q0 -63 -3 -115.5t-20 -90.5t-55 -58.5t-108 -20.5q-31 0 -65.5 5.5t-64.5 21.5t-48.5 49t-18.5 86z" />
<glyph unicode="&#xb4;" horiz-adv-x="681" d="M258 1409l84 322h180l-166 -322h-98z" />
<glyph unicode="&#xb6;" horiz-adv-x="1101" d="M84 1257q0 43 10 94.5t36 100.5t68 94t105 78q43 23 101.5 34t118 16t111.5 6t83 1h268v-151h-102v-1714h-152v1714h-98v-1714h-152v1046q-131 8 -208.5 55.5t-119.5 110t-55.5 126t-13.5 103.5z" />
<glyph unicode="&#xb7;" horiz-adv-x="405" d="M72 844q0 53 39 92t92 39t92 -39t39 -92t-39 -92t-92 -39t-92 39t-39 92z" />
<glyph unicode="&#xb8;" horiz-adv-x="681" d="M160 -117q12 0 29.5 -1t39.5 -1q8 0 21.5 1t27 5t22.5 12.5t9 24.5q0 29 -21.5 39t-31.5 14l41 39h137q37 -23 63.5 -46t26.5 -68q0 -41 -23.5 -64.5t-54 -36t-61.5 -15.5t-47 -3q-6 0 -25.5 1t-44 3t-53.5 6t-55 10v80z" />
<glyph unicode="&#xb9;" horiz-adv-x="512" d="M104 1516v110l222 74h16v-789h-129v635z" />
<glyph unicode="&#xba;" horiz-adv-x="448" d="M43 1079v414q0 80 45 142.5t135 62.5q49 0 84 -18.5t56.5 -48t32 -66.5t10.5 -72v-414q0 -37 -9.5 -74.5t-31 -70.5t-55.5 -53.5t-85 -20.5t-86 20.5t-56.5 53.5t-30.5 70.5t-9 74.5zM178 1044q0 -20 9.5 -41.5t37.5 -21.5q31 0 38 25.5t7 37.5v474q0 16 -12 37.5 t-35 21.5q-25 0 -35 -21.5t-10 -37.5v-474z" />
<glyph unicode="&#xbb;" horiz-adv-x="788" d="M72 92l137 660l-137 665h174l137 -665l-137 -660h-174zM408 92l137 660l-137 665h174l137 -665l-137 -660h-174z" />
<glyph unicode="&#xbc;" horiz-adv-x="1110" d="M25 -184l897 1882h153l-897 -1882h-153zM88 1507v125q76 16 143.5 38t87.5 28h13v-889h-146v725q-14 -4 -29.5 -8t-68.5 -19zM567 -10v116l254 596h152v-596h61v-116h-61v-174h-146v174h-260zM659 106h168v398h-4z" />
<glyph unicode="&#xbd;" horiz-adv-x="1110" d="M25 -184l897 1882h153l-897 -1882h-153zM88 1507v125q76 16 143.5 38t87.5 28h13v-889h-146v725q-14 -4 -29.5 -8t-68.5 -19zM625 -184l108 180q4 8 16.5 31.5t25.5 51t25.5 53.5t18.5 38q41 78 52.5 140.5t11.5 135.5q0 59 -9.5 87t-39.5 28q-29 0 -43.5 -27.5 t-14.5 -52.5v-78h-139v68q0 31 8 71t30.5 75.5t60.5 60t98 24.5q102 0 148 -67.5t46 -169.5q0 -109 -37 -212t-78 -179l-65 -121h172v-137h-395z" />
<glyph unicode="&#xbe;" horiz-adv-x="1110" d="M25 -184l897 1882h153l-897 -1882h-153zM51 1038v78h142v-106q0 -6 1 -20.5t6 -28t16 -23.5t30 -10q35 0 43 32.5t8 75.5q0 59 -1 95t-8 55.5t-22.5 27t-44.5 7.5v110q12 0 26.5 3t25 14.5t17.5 34t7 61.5q0 45 -7 78.5t-46 33.5q-33 0 -42 -28.5t-9 -57.5v-65h-142v49 q0 47 10.5 91t35 78t63.5 54.5t96 20.5q102 0 144 -58.5t42 -177.5q0 -55 -8 -89t-20.5 -54.5t-26.5 -30.5t-27 -16q18 -10 34 -20.5t27 -32t16 -57.5t5 -93q0 -45 -5 -94t-24.5 -89t-59.5 -65.5t-107 -25.5q-109 0 -152 63.5t-43 179.5zM567 -10v116l254 596h152v-596h61 v-116h-61v-174h-146v174h-260zM659 106h168v398h-4z" />
<glyph unicode="&#xbf;" horiz-adv-x="555" d="M41 -61q0 41 7 80.5t23.5 88t43 110t65.5 147.5q27 61 50.5 129.5t40 133t26.5 119t10 89.5v57h49q16 -66 33 -146.5t17 -166.5q0 -31 -3.5 -70t-13.5 -88t-29.5 -112.5t-50.5 -143.5q-8 -18 -16 -43t-15.5 -49.5t-12.5 -47t-5 -40.5q0 -66 34 -101t77 -35q39 0 81 15.5 t64 25.5v-225q-35 -10 -74 -18t-102 -8q-96 0 -155.5 31.5t-91.5 77.5t-42 98.5t-10 91.5zM201 1212q0 59 41 95t88 36q61 0 97 -39.5t36 -91.5q0 -53 -38 -92t-93 -39q-53 0 -92 39t-39 92z" />
<glyph unicode="&#xc0;" horiz-adv-x="788" d="M25 0l264 1698h213l256 -1698h-240l-22 221h-203l-25 -221h-243zM213 2077h180l84 -322h-98zM313 426h158l-76 711h-4z" />
<glyph unicode="&#xc1;" horiz-adv-x="788" d="M25 0l264 1698h213l256 -1698h-240l-22 221h-203l-25 -221h-243zM311 1755l84 322h180l-166 -322h-98zM313 426h158l-76 711h-4z" />
<glyph unicode="&#xc2;" horiz-adv-x="788" d="M25 0l264 1698h213l256 -1698h-240l-22 221h-203l-25 -221h-243zM182 1769l150 279h145l147 -279h-98l-125 152l-127 -152h-92zM313 426h158l-76 711h-4z" />
<glyph unicode="&#xc3;" horiz-adv-x="788" d="M25 0l264 1698h213l256 -1698h-240l-22 221h-203l-25 -221h-243zM151 1812q0 14 2 48t14.5 69t38 60.5t74.5 25.5q25 0 55.5 -10t77.5 -35q16 -10 38 -19.5t36 -9.5q20 0 31.5 9.5t16.5 21.5t6 24.5t1 18.5h93q0 -61 -12.5 -101t-33 -62.5t-45 -32t-45.5 -9.5 q-23 0 -53.5 9.5t-75.5 37.5q-14 10 -32.5 19.5t-34.5 9.5q-18 0 -29.5 -8t-17.5 -20.5t-8 -24.5t-2 -21h-95zM313 426h158l-76 711h-4z" />
<glyph unicode="&#xc4;" horiz-adv-x="788" d="M25 0l264 1698h213l256 -1698h-240l-22 221h-203l-25 -221h-243zM153 1919q0 66 36 98.5t71 32.5q45 0 75.5 -38t30.5 -93q0 -57 -31.5 -95t-74.5 -38q-41 0 -74 35.5t-33 97.5zM313 426h158l-76 711h-4zM422 1919q0 66 35.5 98.5t70.5 32.5q45 0 76 -38t31 -93 q0 -57 -32 -95t-75 -38q-41 0 -73.5 35.5t-32.5 97.5z" />
<glyph unicode="&#xc5;" horiz-adv-x="788" d="M25 0l264 1698h213l256 -1698h-240l-22 221h-203l-25 -221h-243zM231 1929q0 68 48 116t116 48t116 -48t48 -116t-48 -116t-116 -48t-116 48.5t-48 115.5zM301 1929q0 -39 27.5 -66.5t66.5 -27.5t66.5 27.5t27.5 66.5t-27.5 66.5t-66.5 27.5t-66.5 -27.5t-27.5 -66.5z M313 426h158l-76 711h-4z" />
<glyph unicode="&#xc6;" horiz-adv-x="1044" d="M25 0l290 1681h680v-208h-262v-510h248v-209h-248v-545h273v-209h-519v365h-172l-49 -365h-241zM348 573h139v900h-16z" />
<glyph unicode="&#xc7;" horiz-adv-x="788" d="M61 358v938q0 82 19.5 156t59.5 128t103.5 86t153.5 32q94 0 157.5 -33t101.5 -84t54.5 -113.5t16.5 -119.5v-164h-244v127q0 39 -1 70.5t-9 55t-25.5 37t-50.5 13.5q-53 0 -69.5 -41t-16.5 -90v-1043q0 -16 2 -36.5t10.5 -39t25 -31.5t44.5 -13q43 0 66.5 28.5 t23.5 69.5v254h244v-213q0 -94 -28.5 -154.5t-68.5 -98.5t-81 -57.5t-66 -27.5q16 -10 40 -31.5t24 -62.5q0 -45 -27.5 -69t-63.5 -35t-70 -13t-46 -2q-35 0 -76 3t-88 13v90q49 0 92 6.5t43 38.5q0 14 -7 20.5t-36 27.5l31 20q-39 12 -67.5 24.5t-51.5 34.5q-23 20 -44 47 t-37.5 62t-27 81t-10.5 109z" />
<glyph unicode="&#xc8;" horiz-adv-x="641" d="M53 0v1681h529v-208h-283v-508h268v-209h-268v-547h293v-209h-539zM180 2077h180l84 -322h-98z" />
<glyph unicode="&#xc9;" horiz-adv-x="641" d="M53 0v1681h529v-208h-283v-508h268v-209h-268v-547h293v-209h-539zM240 1755l84 322h180l-166 -322h-98z" />
<glyph unicode="&#xca;" horiz-adv-x="641" d="M53 0v1681h529v-208h-283v-508h268v-209h-268v-547h293v-209h-539zM111 1769l150 279h145l147 -279h-98l-125 152l-127 -152h-92z" />
<glyph unicode="&#xcb;" horiz-adv-x="641" d="M53 0v1681h529v-208h-283v-508h268v-209h-268v-547h293v-209h-539zM82 1919q0 66 36 98.5t71 32.5q45 0 75.5 -38t30.5 -93q0 -57 -31.5 -95t-74.5 -38q-41 0 -74 35.5t-33 97.5zM351 1919q0 66 35.5 98.5t70.5 32.5q45 0 76 -38t31 -93q0 -57 -32 -95t-75 -38 q-41 0 -73.5 35.5t-32.5 97.5z" />
<glyph unicode="&#xcc;" horiz-adv-x="405" d="M66 2077h180l84 -322h-98zM80 0v1681h246v-1681h-246z" />
<glyph unicode="&#xcd;" horiz-adv-x="405" d="M80 0v1681h246v-1681h-246zM123 1755l84 322h180l-166 -322h-98z" />
<glyph unicode="&#xce;" horiz-adv-x="405" d="M-6 1769l150 279h145l147 -279h-98l-125 152l-127 -152h-92zM80 0v1681h246v-1681h-246z" />
<glyph unicode="&#xcf;" horiz-adv-x="405" d="M-35 1919q0 66 36 98.5t71 32.5q45 0 75.5 -38t30.5 -93q0 -57 -31.5 -95t-74.5 -38q-41 0 -74 35.5t-33 97.5zM80 0v1681h246v-1681h-246zM234 1919q0 66 35.5 98.5t70.5 32.5q45 0 76 -38t31 -93q0 -57 -32 -95t-75 -38q-41 0 -73.5 35.5t-32.5 97.5z" />
<glyph unicode="&#xd0;" horiz-adv-x="788" d="M-16 737v205h75v739h326q162 0 250 -109.5t88 -303.5v-912q0 -68 -15.5 -131t-52.5 -113.5t-98 -81t-151 -30.5h-347v737h-75zM305 209h68q45 0 74.5 25.5t29.5 72.5v1055q0 51 -25.5 81t-78.5 30h-68v-531h86v-205h-86v-528z" />
<glyph unicode="&#xd1;" horiz-adv-x="788" d="M55 0v1681h160q33 -92 62.5 -180t62.5 -190.5t72 -231.5t90 -305h4v907h227v-1681h-164q-43 119 -76.5 221.5t-66.5 204.5t-66.5 215t-72.5 252h-4v-893h-228zM151 1812q0 14 2 48t14.5 69t38 60.5t74.5 25.5q25 0 55.5 -10t77.5 -35q16 -10 38 -19.5t36 -9.5 q20 0 31.5 9.5t16.5 21.5t6 24.5t1 18.5h93q0 -61 -12.5 -101t-33 -62.5t-45 -32t-45.5 -9.5q-23 0 -53.5 9.5t-75.5 37.5q-14 10 -32.5 19.5t-34.5 9.5q-18 0 -29.5 -8t-17.5 -20.5t-8 -24.5t-2 -21h-95z" />
<glyph unicode="&#xd2;" horiz-adv-x="788" d="M61 426v846q0 55 12.5 128t48.5 139.5t101.5 111.5t173.5 45q82 0 144.5 -30t102.5 -82t60.5 -125t20.5 -159v-925q0 -70 -16.5 -139.5t-55.5 -125t-102.5 -90t-157.5 -34.5q-96 0 -160.5 37.5t-102.5 100t-53.5 141.5t-15.5 161zM254 2077h180l84 -322h-98zM307 350 q0 -66 15.5 -110.5t72.5 -44.5q47 0 65.5 37.5t18.5 91.5v1058q0 47 -21.5 76t-66.5 29q-29 0 -45 -14.5t-24.5 -35t-11.5 -44t-3 -41.5v-1002z" />
<glyph unicode="&#xd3;" horiz-adv-x="788" d="M61 426v846q0 55 12.5 128t48.5 139.5t101.5 111.5t173.5 45q82 0 144.5 -30t102.5 -82t60.5 -125t20.5 -159v-925q0 -70 -16.5 -139.5t-55.5 -125t-102.5 -90t-157.5 -34.5q-96 0 -160.5 37.5t-102.5 100t-53.5 141.5t-15.5 161zM307 350q0 -66 15.5 -110.5t72.5 -44.5 q47 0 65.5 37.5t18.5 91.5v1058q0 47 -21.5 76t-66.5 29q-29 0 -45 -14.5t-24.5 -35t-11.5 -44t-3 -41.5v-1002zM311 1755l84 322h180l-166 -322h-98z" />
<glyph unicode="&#xd4;" horiz-adv-x="788" d="M61 426v846q0 55 12.5 128t48.5 139.5t101.5 111.5t173.5 45q82 0 144.5 -30t102.5 -82t60.5 -125t20.5 -159v-925q0 -70 -16.5 -139.5t-55.5 -125t-102.5 -90t-157.5 -34.5q-96 0 -160.5 37.5t-102.5 100t-53.5 141.5t-15.5 161zM182 1769l150 279h145l147 -279h-98 l-125 152l-127 -152h-92zM307 350q0 -66 15.5 -110.5t72.5 -44.5q47 0 65.5 37.5t18.5 91.5v1058q0 47 -21.5 76t-66.5 29q-29 0 -45 -14.5t-24.5 -35t-11.5 -44t-3 -41.5v-1002z" />
<glyph unicode="&#xd5;" horiz-adv-x="788" d="M61 426v846q0 55 12.5 128t48.5 139.5t101.5 111.5t173.5 45q82 0 144.5 -30t102.5 -82t60.5 -125t20.5 -159v-925q0 -70 -16.5 -139.5t-55.5 -125t-102.5 -90t-157.5 -34.5q-96 0 -160.5 37.5t-102.5 100t-53.5 141.5t-15.5 161zM151 1812q0 14 2 48t14.5 69t38 60.5 t74.5 25.5q25 0 55.5 -10t77.5 -35q16 -10 38 -19.5t36 -9.5q20 0 31.5 9.5t16.5 21.5t6 24.5t1 18.5h93q0 -61 -12.5 -101t-33 -62.5t-45 -32t-45.5 -9.5q-23 0 -53.5 9.5t-75.5 37.5q-14 10 -32.5 19.5t-34.5 9.5q-18 0 -29.5 -8t-17.5 -20.5t-8 -24.5t-2 -21h-95z M307 350q0 -66 15.5 -110.5t72.5 -44.5q47 0 65.5 37.5t18.5 91.5v1058q0 47 -21.5 76t-66.5 29q-29 0 -45 -14.5t-24.5 -35t-11.5 -44t-3 -41.5v-1002z" />
<glyph unicode="&#xd6;" horiz-adv-x="788" d="M61 426v846q0 55 12.5 128t48.5 139.5t101.5 111.5t173.5 45q82 0 144.5 -30t102.5 -82t60.5 -125t20.5 -159v-925q0 -70 -16.5 -139.5t-55.5 -125t-102.5 -90t-157.5 -34.5q-96 0 -160.5 37.5t-102.5 100t-53.5 141.5t-15.5 161zM153 1919q0 66 36 98.5t71 32.5 q45 0 75.5 -38t30.5 -93q0 -57 -31.5 -95t-74.5 -38q-41 0 -74 35.5t-33 97.5zM307 350q0 -66 15.5 -110.5t72.5 -44.5q47 0 65.5 37.5t18.5 91.5v1058q0 47 -21.5 76t-66.5 29q-29 0 -45 -14.5t-24.5 -35t-11.5 -44t-3 -41.5v-1002zM422 1919q0 66 35.5 98.5t70.5 32.5 q45 0 76 -38t31 -93q0 -57 -32 -95t-75 -38q-41 0 -73.5 35.5t-32.5 97.5z" />
<glyph unicode="&#xd7;" horiz-adv-x="1368" d="M176 449l397 395l-397 397l111 111l397 -398l395 398l113 -111l-395 -397l395 -395l-113 -111l-395 395l-397 -395z" />
<glyph unicode="&#xd8;" horiz-adv-x="788" d="M45 -12l64 182q-20 41 -34 108.5t-14 149.5v846q0 51 11.5 123.5t47.5 139.5t101.5 114t175.5 47q92 0 138.5 -26.5t78.5 -55.5l29 82h100l-59 -178q12 -27 26.5 -79t14.5 -138v-926q0 -74 -17.5 -144.5t-57.5 -125t-102.5 -87t-154.5 -32.5q-47 0 -85 9t-64.5 22.5 t-44 27.5t-23.5 23l-29 -82h-102zM307 375q0 -94 17.5 -136t70.5 -42q47 0 65.5 37.5t18.5 91.5v602h-4l-168 -486v-67zM307 745h4l168 486v153q0 47 -21.5 76t-66.5 29q-29 0 -45 -14.5t-24.5 -35t-11.5 -44t-3 -41.5v-609z" />
<glyph unicode="&#xd9;" horiz-adv-x="788" d="M66 332v1349h243v-1378q0 -45 16.5 -74.5t63.5 -29.5q57 0 72.5 40t15.5 91v1351h246v-1312q0 -55 -14.5 -123t-51 -125.5t-99 -96t-159.5 -38.5q-90 0 -153.5 31.5t-103.5 82t-58 111.5t-18 121zM254 2077h180l84 -322h-98z" />
<glyph unicode="&#xda;" horiz-adv-x="788" d="M66 332v1349h243v-1378q0 -45 16.5 -74.5t63.5 -29.5q57 0 72.5 40t15.5 91v1351h246v-1312q0 -55 -14.5 -123t-51 -125.5t-99 -96t-159.5 -38.5q-90 0 -153.5 31.5t-103.5 82t-58 111.5t-18 121zM311 1755l84 322h180l-166 -322h-98z" />
<glyph unicode="&#xdb;" horiz-adv-x="788" d="M66 332v1349h243v-1378q0 -45 16.5 -74.5t63.5 -29.5q57 0 72.5 40t15.5 91v1351h246v-1312q0 -55 -14.5 -123t-51 -125.5t-99 -96t-159.5 -38.5q-90 0 -153.5 31.5t-103.5 82t-58 111.5t-18 121zM182 1769l150 279h145l147 -279h-98l-125 152l-127 -152h-92z" />
<glyph unicode="&#xdc;" horiz-adv-x="788" d="M66 332v1349h243v-1378q0 -45 16.5 -74.5t63.5 -29.5q57 0 72.5 40t15.5 91v1351h246v-1312q0 -55 -14.5 -123t-51 -125.5t-99 -96t-159.5 -38.5q-90 0 -153.5 31.5t-103.5 82t-58 111.5t-18 121zM153 1919q0 66 36 98.5t71 32.5q45 0 75.5 -38t30.5 -93q0 -57 -31.5 -95 t-74.5 -38q-41 0 -74 35.5t-33 97.5zM422 1919q0 66 35.5 98.5t70.5 32.5q45 0 76 -38t31 -93q0 -57 -32 -95t-75 -38q-41 0 -73.5 35.5t-32.5 97.5z" />
<glyph unicode="&#xdd;" d="M37 1681h242l83 -663h5l82 663h239l-203 -870v-811h-245v803zM281 1755l84 322h180l-166 -322h-98z" />
<glyph unicode="&#xde;" horiz-adv-x="788" d="M66 0v1681h245v-254h54q180 0 267 -103t87 -271v-465q0 -59 -15.5 -117.5t-51.5 -106t-96 -77t-150 -29.5h-95v-258h-245zM311 467h56q63 0 84.5 41t21.5 94v490q0 68 -25.5 97.5t-89.5 29.5h-47v-752z" />
<glyph unicode="&#xdf;" d="M72 0v1348q0 68 14 130t48 111t89.5 79t134.5 30q104 0 165 -50.5t90.5 -118t37.5 -138t8 -113.5q0 -86 -13 -143.5t-31.5 -94t-39 -57t-34.5 -33.5q37 -27 60.5 -60.5t35.5 -69.5t16 -68.5t4 -59.5v-373q0 -63 -14 -120.5t-45 -101.5t-78 -70.5t-112 -26.5h-48v205 q27 0 37.5 3t20.5 19q4 6 12 32t8 60v422q0 41 -16 70t-62 33v209q18 4 34 9t26 23.5t15 54.5t5 99q0 74 -3 124t-10 81t-21.5 43t-38.5 12q-41 0 -57.5 -34.5t-16.5 -75.5v-1389h-221z" />
<glyph unicode="&#xe0;" d="M61 295v696q0 45 8.5 105.5t32 116t65.5 93t109 37.5q35 0 60.5 -9t43 -23.5t29 -29.5t19.5 -30h4v80h217v-1331h-217v86h-4q-29 -45 -70 -70.5t-88 -25.5q-92 0 -150.5 77.5t-58.5 227.5zM223 1760h180l84 -322h-98zM279 276q0 -33 14 -65.5t55 -32.5q14 0 29.5 9.5 t28 23.5t19.5 29.5t7 25.5v828q-12 16 -30.5 34.5t-47.5 18.5q-25 0 -40 -13.5t-23 -34t-10 -42t-2 -37.5v-744z" />
<glyph unicode="&#xe1;" d="M61 295v696q0 45 8.5 105.5t32 116t65.5 93t109 37.5q35 0 60.5 -9t43 -23.5t29 -29.5t19.5 -30h4v80h217v-1331h-217v86h-4q-29 -45 -70 -70.5t-88 -25.5q-92 0 -150.5 77.5t-58.5 227.5zM279 276q0 -33 14 -65.5t55 -32.5q14 0 29.5 9.5t28 23.5t19.5 29.5t7 25.5v828 q-12 16 -30.5 34.5t-47.5 18.5q-25 0 -40 -13.5t-23 -34t-10 -42t-2 -37.5v-744zM281 1438l84 322h180l-166 -322h-98z" />
<glyph unicode="&#xe2;" d="M61 295v696q0 45 8.5 105.5t32 116t65.5 93t109 37.5q35 0 60.5 -9t43 -23.5t29 -29.5t19.5 -30h4v80h217v-1331h-217v86h-4q-29 -45 -70 -70.5t-88 -25.5q-92 0 -150.5 77.5t-58.5 227.5zM152 1452l150 279h145l147 -279h-98l-125 152l-127 -152h-92zM279 276 q0 -33 14 -65.5t55 -32.5q14 0 29.5 9.5t28 23.5t19.5 29.5t7 25.5v828q-12 16 -30.5 34.5t-47.5 18.5q-25 0 -40 -13.5t-23 -34t-10 -42t-2 -37.5v-744z" />
<glyph unicode="&#xe3;" d="M61 295v696q0 45 8.5 105.5t32 116t65.5 93t109 37.5q35 0 60.5 -9t43 -23.5t29 -29.5t19.5 -30h4v80h217v-1331h-217v86h-4q-29 -45 -70 -70.5t-88 -25.5q-92 0 -150.5 77.5t-58.5 227.5zM121 1495q0 14 2 48t14.5 69t38 60.5t74.5 25.5q25 0 55.5 -10t77.5 -35 q16 -10 38 -19.5t36 -9.5q20 0 31.5 9.5t16.5 21.5t6 24.5t1 18.5h93q0 -61 -12.5 -101t-33 -62.5t-45 -32t-45.5 -9.5q-23 0 -53.5 9.5t-75.5 37.5q-14 10 -32.5 19.5t-34.5 9.5q-18 0 -29.5 -8t-17.5 -20.5t-8 -24.5t-2 -21h-95zM279 276q0 -33 14 -65.5t55 -32.5 q14 0 29.5 9.5t28 23.5t19.5 29.5t7 25.5v828q-12 16 -30.5 34.5t-47.5 18.5q-25 0 -40 -13.5t-23 -34t-10 -42t-2 -37.5v-744z" />
<glyph unicode="&#xe4;" d="M61 295v696q0 45 8.5 105.5t32 116t65.5 93t109 37.5q35 0 60.5 -9t43 -23.5t29 -29.5t19.5 -30h4v80h217v-1331h-217v86h-4q-29 -45 -70 -70.5t-88 -25.5q-92 0 -150.5 77.5t-58.5 227.5zM123 1602q0 66 36 98.5t71 32.5q45 0 75.5 -38t30.5 -93q0 -57 -31.5 -95 t-74.5 -38q-41 0 -74 35.5t-33 97.5zM279 276q0 -33 14 -65.5t55 -32.5q14 0 29.5 9.5t28 23.5t19.5 29.5t7 25.5v828q-12 16 -30.5 34.5t-47.5 18.5q-25 0 -40 -13.5t-23 -34t-10 -42t-2 -37.5v-744zM392 1602q0 66 35.5 98.5t70.5 32.5q45 0 76 -38t31 -93q0 -57 -32 -95 t-75 -38q-41 0 -73.5 35.5t-32.5 97.5z" />
<glyph unicode="&#xe5;" d="M61 295v696q0 45 8.5 105.5t32 116t65.5 93t109 37.5q35 0 60.5 -9t43 -23.5t29 -29.5t19.5 -30h4v80h217v-1331h-217v86h-4q-29 -45 -70 -70.5t-88 -25.5q-92 0 -150.5 77.5t-58.5 227.5zM201 1612q0 68 48 116t116 48t116 -48t48 -116t-48 -116t-116 -48t-116 48.5 t-48 115.5zM271 1612q0 -39 27.5 -66.5t66.5 -27.5t66.5 27.5t27.5 66.5t-27.5 66.5t-66.5 27.5t-66.5 -27.5t-27.5 -66.5zM279 276q0 -33 14 -65.5t55 -32.5q14 0 29.5 9.5t28 23.5t19.5 29.5t7 25.5v828q-12 16 -30.5 34.5t-47.5 18.5q-25 0 -40 -13.5t-23 -34t-10 -42 t-2 -37.5v-744z" />
<glyph unicode="&#xe6;" horiz-adv-x="1044" d="M49 299v715q0 57 12.5 116.5t37 106.5t64.5 76.5t95 29.5q14 0 35.5 -4t44 -18t45.5 -42t43 -75h4v127h154v-162h4q10 29 23.5 60t34 56.5t51 41.5t73.5 16q59 0 99 -27.5t64.5 -70.5t35 -96t10.5 -105v-436h-354v-340q0 -27 15 -56.5t54 -29.5q35 0 50.5 30t15.5 67v139 h219v-133q0 -74 -21.5 -128.5t-59.5 -91t-89 -54t-109 -17.5q-51 0 -90 12t-69.5 32.5t-53 44t-43.5 48.5q-12 -23 -29.5 -47.5t-40 -45t-51 -33.5t-67.5 -13q-98 0 -152.5 85t-54.5 222zM268 289q0 -43 9.5 -76t48.5 -33q37 0 58.5 24.5t21.5 41.5v803q0 35 -18.5 66.5 t-55.5 31.5q-23 0 -35 -11.5t-18.5 -26.5t-8.5 -31.5t-2 -28.5v-760zM625 788h135v293q0 27 -15.5 52.5t-48.5 25.5q-23 0 -37 -14.5t-21 -36t-10 -44t-3 -40.5v-236z" />
<glyph unicode="&#xe7;" d="M76 348v619q0 49 9 114.5t39 124t85 98t149 39.5q127 0 209 -78.5t82 -242.5v-195h-221v209q0 16 -2 36t-9 36t-19.5 27.5t-32.5 11.5q-23 0 -35.5 -11.5t-20.5 -28.5t-10 -36.5t-2 -34.5v-735q0 -12 2 -31.5t9 -38t19.5 -31t32.5 -12.5q18 0 32 11.5t22 28t11 36t3 37.5 v203h221v-156q0 -96 -20.5 -157.5t-49 -98.5t-59.5 -55.5t-51 -26.5q27 -16 44 -38.5t17 -59.5q0 -41 -20.5 -65.5t-50 -38t-62 -18.5t-59.5 -5q-10 0 -30.5 1t-45 4t-51.5 8t-51 14v75q20 -4 43.5 -6t50.5 -2q23 0 47.5 8.5t24.5 38.5q0 27 -19.5 36t-50.5 20l29 18 q-29 8 -65 23.5t-68.5 52.5t-54 101.5t-21.5 170.5z" />
<glyph unicode="&#xe8;" d="M70 297v739q0 57 17 112.5t53 98.5t91.5 69.5t130.5 26.5q125 0 208 -76.5t83 -219.5v-441h-366v-342q0 -47 25.5 -62.5t47.5 -15.5q41 0 58.5 29t17.5 76v127h217v-156q0 -43 -15 -90t-49 -88t-88.5 -67.5t-131.5 -26.5q-80 0 -136.5 25.5t-93.5 68.5t-53 98.5 t-16 114.5zM223 1760h180l84 -322h-98zM287 786h149v275q0 39 -19.5 62.5t-58.5 23.5t-55 -31t-16 -55v-275z" />
<glyph unicode="&#xe9;" d="M70 297v739q0 57 17 112.5t53 98.5t91.5 69.5t130.5 26.5q125 0 208 -76.5t83 -219.5v-441h-366v-342q0 -47 25.5 -62.5t47.5 -15.5q41 0 58.5 29t17.5 76v127h217v-156q0 -43 -15 -90t-49 -88t-88.5 -67.5t-131.5 -26.5q-80 0 -136.5 25.5t-93.5 68.5t-53 98.5 t-16 114.5zM281 1438l84 322h180l-166 -322h-98zM287 786h149v275q0 39 -19.5 62.5t-58.5 23.5t-55 -31t-16 -55v-275z" />
<glyph unicode="&#xea;" d="M70 297v739q0 57 17 112.5t53 98.5t91.5 69.5t130.5 26.5q125 0 208 -76.5t83 -219.5v-441h-366v-342q0 -47 25.5 -62.5t47.5 -15.5q41 0 58.5 29t17.5 76v127h217v-156q0 -43 -15 -90t-49 -88t-88.5 -67.5t-131.5 -26.5q-80 0 -136.5 25.5t-93.5 68.5t-53 98.5 t-16 114.5zM152 1452l150 279h145l147 -279h-98l-125 152l-127 -152h-92zM287 786h149v275q0 39 -19.5 62.5t-58.5 23.5t-55 -31t-16 -55v-275z" />
<glyph unicode="&#xeb;" d="M70 297v739q0 57 17 112.5t53 98.5t91.5 69.5t130.5 26.5q125 0 208 -76.5t83 -219.5v-441h-366v-342q0 -47 25.5 -62.5t47.5 -15.5q41 0 58.5 29t17.5 76v127h217v-156q0 -43 -15 -90t-49 -88t-88.5 -67.5t-131.5 -26.5q-80 0 -136.5 25.5t-93.5 68.5t-53 98.5 t-16 114.5zM123 1602q0 66 36 98.5t71 32.5q45 0 75.5 -38t30.5 -93q0 -57 -31.5 -95t-74.5 -38q-41 0 -74 35.5t-33 97.5zM287 786h149v275q0 39 -19.5 62.5t-58.5 23.5t-55 -31t-16 -55v-275zM392 1602q0 66 35.5 98.5t70.5 32.5q45 0 76 -38t31 -93q0 -57 -32 -95 t-75 -38q-41 0 -73.5 35.5t-32.5 97.5z" />
<glyph unicode="&#xec;" horiz-adv-x="405" d="M66 1760h180l84 -322h-98zM94 0v1331h217v-1331h-217z" />
<glyph unicode="&#xed;" horiz-adv-x="405" d="M94 0v1331h217v-1331h-217zM123 1438l84 322h180l-166 -322h-98z" />
<glyph unicode="&#xee;" horiz-adv-x="405" d="M-6 1452l150 279h145l147 -279h-98l-125 152l-127 -152h-92zM94 0v1331h217v-1331h-217z" />
<glyph unicode="&#xef;" horiz-adv-x="405" d="M-35 1602q0 66 36 98.5t71 32.5q45 0 75.5 -38t30.5 -93q0 -57 -31.5 -95t-74.5 -38q-41 0 -74 35.5t-33 97.5zM94 0v1331h217v-1331h-217zM234 1602q0 66 35.5 98.5t70.5 32.5q45 0 76 -38t31 -93q0 -57 -32 -95t-75 -38q-41 0 -73.5 35.5t-32.5 97.5z" />
<glyph unicode="&#xf0;" d="M72 344v639q0 68 15 131.5t44 111.5t72 76.5t96 28.5q45 0 66.5 -13t37.5 -34l5 4q-6 29 -21.5 71t-60.5 109l-211 -118l-41 75l196 111l-47 47l90 113q41 -23 60.5 -38.5t46.5 -39.5l133 78l43 -78l-115 -64q25 -33 54.5 -75.5t56 -102t44 -138.5t17.5 -183v-729 q0 -68 -18.5 -128.5t-54 -106.5t-89 -72.5t-122.5 -26.5q-135 0 -216 93t-81 259zM289 313q0 -47 14 -86t57 -39q25 0 40.5 12.5t23.5 30t10 36t2 30.5v743q0 45 -19.5 76t-56.5 31q-43 0 -57 -38t-14 -77v-719z" />
<glyph unicode="&#xf1;" d="M70 0v1331h217v-65h4q33 47 74 62t69 15q90 0 155.5 -77.5t65.5 -239.5v-1026h-217v1047q0 14 -5 31.5t-14 32.5t-24.5 25.5t-34.5 10.5q-29 0 -51 -18.5t-22 -41.5v-1087h-217zM121 1495q0 14 2 48t14.5 69t38 60.5t74.5 25.5q25 0 55.5 -10t77.5 -35q16 -10 38 -19.5 t36 -9.5q20 0 31.5 9.5t16.5 21.5t6 24.5t1 18.5h93q0 -61 -12.5 -101t-33 -62.5t-45 -32t-45.5 -9.5q-23 0 -53.5 9.5t-75.5 37.5q-14 10 -32.5 19.5t-34.5 9.5q-18 0 -29.5 -8t-17.5 -20.5t-8 -24.5t-2 -21h-95z" />
<glyph unicode="&#xf2;" d="M72 354v672q0 39 13 94.5t46 104.5t88 83.5t141 34.5t142.5 -33.5t90.5 -84.5t47 -112.5t13 -117.5v-651q0 -59 -13 -121.5t-47 -114t-89 -85t-137 -33.5q-84 0 -140.5 32.5t-91.5 85t-49 117t-14 129.5zM223 1760h180l84 -322h-98zM289 299q0 -18 3 -37.5t11 -36 t22.5 -28t39.5 -11.5q23 0 37 12.5t21 30t10 35t3 29.5v747q0 6 -2 23.5t-10 36t-22.5 33t-39.5 14.5q-23 0 -37 -10.5t-22 -26.5t-11 -34.5t-3 -35.5v-741z" />
<glyph unicode="&#xf3;" d="M72 354v672q0 39 13 94.5t46 104.5t88 83.5t141 34.5t142.5 -33.5t90.5 -84.5t47 -112.5t13 -117.5v-651q0 -59 -13 -121.5t-47 -114t-89 -85t-137 -33.5q-84 0 -140.5 32.5t-91.5 85t-49 117t-14 129.5zM281 1438l84 322h180l-166 -322h-98zM289 299q0 -18 3 -37.5 t11 -36t22.5 -28t39.5 -11.5q23 0 37 12.5t21 30t10 35t3 29.5v747q0 6 -2 23.5t-10 36t-22.5 33t-39.5 14.5q-23 0 -37 -10.5t-22 -26.5t-11 -34.5t-3 -35.5v-741z" />
<glyph unicode="&#xf4;" d="M72 354v672q0 39 13 94.5t46 104.5t88 83.5t141 34.5t142.5 -33.5t90.5 -84.5t47 -112.5t13 -117.5v-651q0 -59 -13 -121.5t-47 -114t-89 -85t-137 -33.5q-84 0 -140.5 32.5t-91.5 85t-49 117t-14 129.5zM152 1452l150 279h145l147 -279h-98l-125 152l-127 -152h-92z M289 299q0 -18 3 -37.5t11 -36t22.5 -28t39.5 -11.5q23 0 37 12.5t21 30t10 35t3 29.5v747q0 6 -2 23.5t-10 36t-22.5 33t-39.5 14.5q-23 0 -37 -10.5t-22 -26.5t-11 -34.5t-3 -35.5v-741z" />
<glyph unicode="&#xf5;" d="M72 354v672q0 39 13 94.5t46 104.5t88 83.5t141 34.5t142.5 -33.5t90.5 -84.5t47 -112.5t13 -117.5v-651q0 -59 -13 -121.5t-47 -114t-89 -85t-137 -33.5q-84 0 -140.5 32.5t-91.5 85t-49 117t-14 129.5zM121 1495q0 14 2 48t14.5 69t38 60.5t74.5 25.5q25 0 55.5 -10 t77.5 -35q16 -10 38 -19.5t36 -9.5q20 0 31.5 9.5t16.5 21.5t6 24.5t1 18.5h93q0 -61 -12.5 -101t-33 -62.5t-45 -32t-45.5 -9.5q-23 0 -53.5 9.5t-75.5 37.5q-14 10 -32.5 19.5t-34.5 9.5q-18 0 -29.5 -8t-17.5 -20.5t-8 -24.5t-2 -21h-95zM289 299q0 -18 3 -37.5t11 -36 t22.5 -28t39.5 -11.5q23 0 37 12.5t21 30t10 35t3 29.5v747q0 6 -2 23.5t-10 36t-22.5 33t-39.5 14.5q-23 0 -37 -10.5t-22 -26.5t-11 -34.5t-3 -35.5v-741z" />
<glyph unicode="&#xf6;" d="M72 354v672q0 39 13 94.5t46 104.5t88 83.5t141 34.5t142.5 -33.5t90.5 -84.5t47 -112.5t13 -117.5v-651q0 -59 -13 -121.5t-47 -114t-89 -85t-137 -33.5q-84 0 -140.5 32.5t-91.5 85t-49 117t-14 129.5zM123 1602q0 66 36 98.5t71 32.5q45 0 75.5 -38t30.5 -93 q0 -57 -31.5 -95t-74.5 -38q-41 0 -74 35.5t-33 97.5zM289 299q0 -18 3 -37.5t11 -36t22.5 -28t39.5 -11.5q23 0 37 12.5t21 30t10 35t3 29.5v747q0 6 -2 23.5t-10 36t-22.5 33t-39.5 14.5q-23 0 -37 -10.5t-22 -26.5t-11 -34.5t-3 -35.5v-741zM392 1602q0 66 35.5 98.5 t70.5 32.5q45 0 76 -38t31 -93q0 -57 -32 -95t-75 -38q-41 0 -73.5 35.5t-32.5 97.5z" />
<glyph unicode="&#xf7;" horiz-adv-x="1368" d="M135 766v158h1096v-158h-1096zM584 428q0 41 28.5 69.5t69.5 28.5t70.5 -28.5t29.5 -69.5t-29.5 -70.5t-70.5 -29.5t-69.5 29.5t-28.5 70.5zM584 1264q0 41 28.5 69.5t69.5 28.5t70.5 -28.5t29.5 -69.5t-29.5 -71t-70.5 -30t-69.5 30t-28.5 71z" />
<glyph unicode="&#xf8;" d="M51 -8l64 162q-14 20 -28.5 74.5t-14.5 127.5v670q0 43 13 97.5t46 103.5t89 82.5t140 33.5q80 0 122 -23.5t71 -45.5l29 69h96l-64 -159q20 -53 29.5 -92t9.5 -97v-649q0 -59 -13 -121.5t-46 -114t-88 -85t-139 -33.5q-70 0 -108 17.5t-83 47.5l-26 -65h-99zM289 301 q0 -18 3 -37.5t11 -36t22.5 -28t39.5 -11.5q23 0 37 12.5t21 30t10 35t3 29.5v432h-4l-143 -381v-45zM289 596h4l143 379v65q0 6 -2 23.5t-10 36t-22.5 33t-39.5 14.5q-23 0 -37 -10.5t-22 -26.5t-11 -34.5t-3 -35.5v-444z" />
<glyph unicode="&#xf9;" d="M66 328v1003h217v-1038q0 -10 2 -28.5t10 -38t24.5 -34t45.5 -14.5q51 0 64 39t13 82v1032h217v-1009q0 -66 -14 -126.5t-48 -106.5t-91 -72.5t-144 -26.5q-82 0 -138 26.5t-92 72.5t-51 107.5t-15 131.5zM223 1760h180l84 -322h-98z" />
<glyph unicode="&#xfa;" d="M66 328v1003h217v-1038q0 -10 2 -28.5t10 -38t24.5 -34t45.5 -14.5q51 0 64 39t13 82v1032h217v-1009q0 -66 -14 -126.5t-48 -106.5t-91 -72.5t-144 -26.5q-82 0 -138 26.5t-92 72.5t-51 107.5t-15 131.5zM281 1438l84 322h180l-166 -322h-98z" />
<glyph unicode="&#xfb;" d="M66 328v1003h217v-1038q0 -10 2 -28.5t10 -38t24.5 -34t45.5 -14.5q51 0 64 39t13 82v1032h217v-1009q0 -66 -14 -126.5t-48 -106.5t-91 -72.5t-144 -26.5q-82 0 -138 26.5t-92 72.5t-51 107.5t-15 131.5zM152 1452l150 279h145l147 -279h-98l-125 152l-127 -152h-92z " />
<glyph unicode="&#xfc;" d="M66 328v1003h217v-1038q0 -10 2 -28.5t10 -38t24.5 -34t45.5 -14.5q51 0 64 39t13 82v1032h217v-1009q0 -66 -14 -126.5t-48 -106.5t-91 -72.5t-144 -26.5q-82 0 -138 26.5t-92 72.5t-51 107.5t-15 131.5zM123 1602q0 66 36 98.5t71 32.5q45 0 75.5 -38t30.5 -93 q0 -57 -31.5 -95t-74.5 -38q-41 0 -74 35.5t-33 97.5zM392 1602q0 66 35.5 98.5t70.5 32.5q45 0 76 -38t31 -93q0 -57 -32 -95t-75 -38q-41 0 -73.5 35.5t-32.5 97.5z" />
<glyph unicode="&#xfd;" horiz-adv-x="641" d="M27 1331h215l75 -858h5l61 858h215l-174 -1138q-12 -80 -19.5 -128.5t-14.5 -78t-14 -48t-20 -38.5q-25 -45 -66.5 -66.5t-94.5 -21.5q-39 0 -60.5 7t-40.5 17v209q16 -12 34.5 -23.5t37.5 -11.5q27 0 48.5 37t14.5 82zM240 1438l84 322h180l-166 -322h-98z" />
<glyph unicode="&#xfe;" d="M70 -188v1869h217v-430h4q16 29 48 60.5t95 31.5q45 0 84 -22.5t68.5 -67.5t47 -115.5t17.5 -164.5v-678q0 -66 -14 -121t-41 -95t-65.5 -63.5t-88.5 -23.5q-53 0 -83.5 24.5t-71.5 69.5v-274h-217zM287 264q0 -6 5 -21.5t15 -29.5t24.5 -25.5t35.5 -11.5q25 0 38 10.5 t20 24.5t8 29.5t1 23.5v785q0 10 -4 26.5t-12 32.5t-23.5 27.5t-36.5 11.5q-25 0 -45 -17.5t-20 -23.5l-4 -8h-2v-834z" />
<glyph unicode="&#xff;" horiz-adv-x="641" d="M27 1331h215l75 -858h5l61 858h215l-174 -1138q-12 -80 -19.5 -128.5t-14.5 -78t-14 -48t-20 -38.5q-25 -45 -66.5 -66.5t-94.5 -21.5q-39 0 -60.5 7t-40.5 17v209q16 -12 34.5 -23.5t37.5 -11.5q27 0 48.5 37t14.5 82zM82 1602q0 66 36 98.5t71 32.5q45 0 75.5 -38 t30.5 -93q0 -57 -31.5 -95t-74.5 -38q-41 0 -74 35.5t-33 97.5zM351 1602q0 66 35.5 98.5t70.5 32.5q45 0 76 -38t31 -93q0 -57 -32 -95t-75 -38q-41 0 -73.5 35.5t-32.5 97.5z" />
<glyph unicode="&#x152;" horiz-adv-x="1044" d="M63 414v819q0 166 41 256t113 135q90 57 186 57h592v-208h-256v-508h244v-209h-244v-547h256v-209h-557q-193 0 -284 107.5t-91 306.5zM309 346q0 -20 4 -43.5t13.5 -43t27 -33t43.5 -13.5q33 0 52.5 17.5t28.5 44t12.5 54t3.5 50.5v960q0 20 -3.5 43t-13.5 43.5 t-27.5 34t-43.5 13.5q-33 0 -52.5 -15.5t-29 -38t-12.5 -49.5t-3 -47v-977z" />
<glyph unicode="&#x153;" horiz-adv-x="1044" d="M45 639q0 248 14.5 386t53.5 198q37 57 93 88.5t132 31.5q63 0 108.5 -20t77.5 -41q43 35 94.5 48t88.5 13q68 0 120 -25.5t87.5 -67.5t53 -94t17.5 -103v-445h-354v-350q0 -6 4 -18.5t11 -24.5t19.5 -21.5t30.5 -9.5q37 0 53.5 31t16.5 70v135h219v-150 q0 -57 -16.5 -107t-50 -88t-86 -60.5t-121.5 -22.5q-76 0 -122 22.5t-73 38.5q-41 -29 -92 -45t-92 -16q-66 0 -125.5 31.5t-100.5 95.5q-16 25 -27 63.5t-19.5 100t-11.5 148.5t-3 208zM274 293q0 -16 2.5 -34.5t9.5 -35t19 -28t35 -11.5q20 0 34.5 10.5t23 24.5t12.5 31.5 t4 32.5v749q0 14 -2 33.5t-9.5 38t-21.5 31t-39 12.5t-39 -16.5t-20.5 -39t-7.5 -47t-1 -43.5v-708zM631 788h135v273q0 29 -15.5 57.5t-50.5 28.5q-23 0 -37 -14.5t-21 -33t-9 -38t-2 -31.5v-242z" />
<glyph unicode="&#x178;" d="M37 1681h242l83 -663h5l82 663h239l-203 -870v-811h-245v803zM123 1919q0 66 36 98.5t71 32.5q45 0 75.5 -38t30.5 -93q0 -57 -31.5 -95t-74.5 -38q-41 0 -74 35.5t-33 97.5zM392 1919q0 66 35.5 98.5t70.5 32.5q45 0 76 -38t31 -93q0 -57 -32 -95t-75 -38 q-41 0 -73.5 35.5t-32.5 97.5z" />
<glyph unicode="&#x2c6;" horiz-adv-x="681" d="M129 1423l150 279h145l147 -279h-98l-125 152l-127 -152h-92z" />
<glyph unicode="&#x2dc;" horiz-adv-x="681" d="M98 1466q0 14 2 48t14.5 69t38 60.5t74.5 25.5q25 0 55.5 -10t77.5 -35q16 -10 38 -19.5t36 -9.5q20 0 31.5 9.5t16.5 21.5t6 24.5t1 18.5h93q0 -61 -12.5 -101t-33 -62.5t-45 -32t-45.5 -9.5q-23 0 -53.5 9.5t-75.5 37.5q-14 10 -32.5 19.5t-34.5 9.5q-18 0 -29.5 -8 t-17.5 -20.5t-8 -24.5t-2 -21h-95z" />
<glyph unicode="&#x2000;" horiz-adv-x="1046" />
<glyph unicode="&#x2001;" horiz-adv-x="2093" />
<glyph unicode="&#x2002;" horiz-adv-x="1046" />
<glyph unicode="&#x2003;" horiz-adv-x="2093" />
<glyph unicode="&#x2004;" horiz-adv-x="697" />
<glyph unicode="&#x2005;" horiz-adv-x="523" />
<glyph unicode="&#x2006;" horiz-adv-x="348" />
<glyph unicode="&#x2007;" horiz-adv-x="348" />
<glyph unicode="&#x2008;" horiz-adv-x="261" />
<glyph unicode="&#x2009;" horiz-adv-x="418" />
<glyph unicode="&#x200a;" horiz-adv-x="116" />
<glyph unicode="&#x2010;" horiz-adv-x="555" d="M53 571v187h447v-187h-447z" />
<glyph unicode="&#x2011;" horiz-adv-x="555" d="M53 571v187h447v-187h-447z" />
<glyph unicode="&#x2012;" horiz-adv-x="555" d="M53 571v187h447v-187h-447z" />
<glyph unicode="&#x2013;" horiz-adv-x="1024" d="M-12 455v129h1048v-129h-1048z" />
<glyph unicode="&#x2014;" horiz-adv-x="2048" d="M-12 455v129h2072v-129h-2072z" />
<glyph unicode="&#x2018;" horiz-adv-x="405" d="M55 1405q0 16 5.5 48t30 72t73.5 81t137 75l31 -41q-61 -43 -83 -73.5t-22 -48.5q0 -12 11.5 -22.5t25.5 -20.5q49 -33 61.5 -63t12.5 -52q0 -49 -37 -91t-96 -42q-37 0 -64.5 16.5t-46 42t-29 57t-10.5 62.5z" />
<glyph unicode="&#x2019;" horiz-adv-x="405" d="M68 1561q0 49 36.5 91t96.5 42q37 0 64.5 -16.5t46 -42t28.5 -57.5t10 -62q0 -16 -5 -48t-29.5 -72t-73.5 -81t-138 -76l-30 41q61 43 82.5 73.5t21.5 49.5q0 12 -11 22.5t-26 20.5q-49 33 -61 62.5t-12 52.5z" />
<glyph unicode="&#x201a;" horiz-adv-x="405" d="M63 125q0 20 8.5 42.5t24 42t40 32t54.5 12.5q53 0 94.5 -41t41.5 -127q0 -74 -28 -123t-65.5 -81t-75.5 -48t-59 -22l-22 43q45 23 63.5 51t26.5 94q-63 23 -83 61.5t-20 63.5z" />
<glyph unicode="&#x201c;" horiz-adv-x="788" d="M55 1405q0 16 5.5 48t30 72t73.5 81t137 75l31 -41q-61 -43 -83 -73.5t-22 -48.5q0 -12 11.5 -22.5t25.5 -20.5q49 -33 61.5 -63t12.5 -52q0 -49 -37 -91t-96 -42q-37 0 -64.5 16.5t-46 42t-29 57t-10.5 62.5zM455 1405q0 16 5 48t29.5 72t73.5 81t137 75l31 -41 q-61 -43 -82.5 -73.5t-21.5 -48.5q0 -12 11 -22.5t26 -20.5q49 -33 61 -63t12 -52q0 -49 -36.5 -91t-96.5 -42q-37 0 -64.5 16.5t-46 42t-28.5 57t-10 62.5z" />
<glyph unicode="&#x201d;" horiz-adv-x="788" d="M51 1561q0 49 37 91t96 42q37 0 64.5 -16.5t46 -42t29 -57.5t10.5 -62q0 -16 -5 -48t-30 -72t-74 -81t-137 -76l-31 41q61 43 83 73.5t22 49.5q0 12 -11.5 22.5t-25.5 20.5q-49 33 -61.5 62.5t-12.5 52.5zM451 1561q0 49 36.5 91t96.5 42q37 0 64.5 -16.5t46 -42 t28.5 -57.5t10 -62q0 -16 -5 -48t-29.5 -72t-74 -81t-137.5 -76l-30 41q61 43 82.5 73.5t21.5 49.5q0 12 -11 22.5t-26 20.5q-49 33 -61 62.5t-12 52.5z" />
<glyph unicode="&#x201e;" horiz-adv-x="788" d="M61 125q0 20 8.5 42.5t24 42t40 32t54.5 12.5q53 0 94.5 -41t41.5 -127q0 -74 -28 -123t-65.5 -81t-75.5 -48t-59 -22l-22 43q45 23 63.5 51t26.5 94q-63 23 -83 61.5t-20 63.5zM457 125q0 20 8 42.5t23.5 42t40 32t55.5 12.5q53 0 94 -41t41 -127q0 -74 -27.5 -123 t-65.5 -81t-76 -48t-58 -22l-23 43q45 23 63.5 51t26.5 94q-63 23 -82.5 61.5t-19.5 63.5z" />
<glyph unicode="&#x2022;" horiz-adv-x="716" d="M123 717q0 49 18.5 92t50 74.5t74.5 50t92 18.5t92.5 -18.5t75 -50t50 -74.5t18.5 -92t-18.5 -92t-50 -75t-74.5 -50.5t-93 -18.5q-49 0 -92 18.5t-74.5 50.5t-50 75t-18.5 92z" />
<glyph unicode="&#x2026;" horiz-adv-x="1110" d="M51 127q0 57 40 92t87 35q59 0 95 -40t36 -87q0 -53 -38 -90t-91 -37t-91 37t-38 90zM426 127q0 55 40 91t87 36q59 0 95 -40t36 -87q0 -53 -38 -90t-91 -37t-91 37t-38 90zM801 127q0 57 40 92t87 35q59 0 95 -40t36 -87q0 -53 -38 -90t-91 -37t-91 37t-38 90z" />
<glyph unicode="&#x202f;" horiz-adv-x="418" />
<glyph unicode="&#x2039;" horiz-adv-x="405" d="M47 758l137 659h174l-137 -659l137 -666h-174z" />
<glyph unicode="&#x203a;" horiz-adv-x="405" d="M47 92l137 660l-137 665h174l137 -665l-137 -660h-174z" />
<glyph unicode="&#x205f;" horiz-adv-x="523" />
<glyph unicode="&#x2122;" horiz-adv-x="1552" d="M16 1554v127h594v-127h-225v-688h-143v688h-226zM680 866v815h238l139 -557h4l147 557h238v-815h-146v652h-4l-170 -652h-131l-168 652h-4v-652h-143z" />
<glyph unicode="&#xe000;" horiz-adv-x="1331" d="M0 0v1331h1331v-1331h-1331z" />
</font>
</defs>
</svg>
